<?xml version="1.0" encoding="utf-8"?>
<!-- Generator: Adobe Illustrator 23.0.2, SVG Export Plug-In . SVG Version: 6.00 Build 0)  -->
<svg version="1.1" id="Layer_1" xmlns="http://www.w3.org/2000/svg" xmlns:xlink="http://www.w3.org/1999/xlink" x="0px" y="0px"
	 viewBox="0 0 15.5 21.4" style="enable-background:new 0 0 15.5 21.4;" xml:space="preserve">
<style type="text/css">
	.st0{fill:#FFFFFF;}
</style>
<path class="st0" d="M7.6,18c-0.6-4.2-3.9-2.5-6.3-6.2C0.5,18,6.1,18,5,21.2c-0.8-2.2-2.7-2.4-3.7-3.9c-1.8-2.7-1.4-6.9,0-8.3
	c0.5,3.2,3,3.8,4.8,4.9c-0.6-0.8-1.2-1.7-1.9-3C2.4,7.6,5.9,3.1,9,0.2C7.7,5.7,15.3,9,15.3,14.8c0,2.8-2.3,6-6.5,6.5
	c2.6-2,2.9-4,2.7-5.5c-0.2-2.6-1.7-3-2.7-4.4c1.3,0.5,4.6,1.4,4,6.2c0.5-0.8,0.8-1.7,0.8-2.8c0-4.5-4.8-6.8-5.9-11.1
	C6.3,5,4.6,8.5,5.5,10.3c0.9,1.8,1.8,3.2,2.5,4.8c0.6,1.2,0,2.6-0.4,3.2L7.6,18z"/>
</svg>
