<!--?xml version="1.0" encoding="utf-8"?-->
<!-- Generator: Adobe Illustrator 23.0.2, SVG Export Plug-In . SVG Version: 6.00 Build 0)  -->
<svg version="1.1" id="Layer_1" xmlns="http://www.w3.org/2000/svg" xmlns:xlink="http://www.w3.org/1999/xlink" x="0px" y="0px" viewBox="0 0 311 132" style="" xml:space="preserve">
<style type="text/css">
	.st0{fill:none;stroke:#CCE1F5;stroke-miterlimit:10;}
	.st1{fill:none;stroke:#CCE1F5;stroke-linecap:square;stroke-miterlimit:10;}
	.st2{clip-path:url(#SVGID_2_);}
	.st3{clip-path:url(#SVGID_4_);fill:none;stroke:#CCE1F5;stroke-width:2;stroke-miterlimit:10;}
	.st4{clip-path:url(#SVGID_6_);}
	.st5{clip-path:url(#SVGID_8_);enable-background:new    ;}
	.st6{clip-path:url(#SVGID_10_);}
	.st7{clip-path:url(#SVGID_12_);fill:none;stroke:#CCE1F5;stroke-width:2;stroke-miterlimit:10;}
	.st8{clip-path:url(#SVGID_14_);}
	.st9{clip-path:url(#SVGID_16_);enable-background:new    ;}
	.st10{clip-path:url(#SVGID_18_);}
	.st11{clip-path:url(#SVGID_20_);fill:none;stroke:#CCE1F5;stroke-width:2;stroke-miterlimit:10;}
	.st12{clip-path:url(#SVGID_22_);}
	.st13{clip-path:url(#SVGID_24_);enable-background:new    ;}
	.st14{clip-path:url(#SVGID_26_);}
	.st15{clip-path:url(#SVGID_28_);fill:none;stroke:#CCE1F5;stroke-width:2;stroke-miterlimit:10;}
	.st16{clip-path:url(#SVGID_30_);}
	.st17{clip-path:url(#SVGID_32_);fill:none;stroke:#CCE1F5;stroke-width:2;stroke-miterlimit:10;}
	.st18{fill:none;stroke:#CCE1F5;stroke-width:2;stroke-miterlimit:10;}
	.st19{clip-path:url(#SVGID_34_);}
	.st20{clip-path:url(#SVGID_36_);enable-background:new    ;}
	.st21{clip-path:url(#SVGID_38_);}
	.st22{clip-path:url(#SVGID_40_);fill:none;stroke:#CCE1F5;stroke-width:2;stroke-miterlimit:10;}
	.st23{clip-path:url(#SVGID_42_);}
	.st24{clip-path:url(#SVGID_44_);enable-background:new    ;}
	.st25{clip-path:url(#SVGID_46_);}
	.st26{clip-path:url(#SVGID_48_);fill:none;stroke:#CCE1F5;stroke-width:2;stroke-miterlimit:10;}
	.st27{clip-path:url(#SVGID_50_);}
	.st28{clip-path:url(#SVGID_52_);fill:none;stroke:#CCE1F5;stroke-width:2;stroke-miterlimit:10;}
	.st29{clip-path:url(#SVGID_54_);fill:none;stroke:#CCE1F5;stroke-width:2;stroke-miterlimit:10;}
</style>
<g>
	<path class="st0 bYxDvmXI_0" width="31" height="11.6" d="M230.1 8.6 L261.1 8.6 L261.1 20.2 L230.1 20.2 Z"></path>
	<path class="st0 bYxDvmXI_1" width="29.4" height="11.6" d="M178 8.6 L207.4 8.6 L207.4 20.2 L178 20.2 Z"></path>
	<path class="st1 bYxDvmXI_2" d="M185,82.9L215.6,82.9"></path>
	<g>
		<g>
			<defs>
				<path id="SVGID_1_" width="12" height="9.1" d="M155.3 85.5 L167.3 85.5 L167.3 94.6 L155.3 94.6 Z" class="bYxDvmXI_3"></path>
			</defs>
			<clipPath id="SVGID_2_">
				<use xlink:href="#SVGID_1_" style="overflow:visible;"></use>
			</clipPath>
			<g class="st2">
				<g>
					<defs>
						<path id="SVGID_3_" width="250.4" height="130" d="M0.1 1.4 L250.5 1.4 L250.5 131.4 L0.1 131.4 Z" class="bYxDvmXI_4"></path>
					</defs>
					<clipPath id="SVGID_4_">
						<use xlink:href="#SVGID_3_" style="overflow:visible;"></use>
					</clipPath>
					<path class="st3 bYxDvmXI_5" width="12" height="9.1" d="M155.3 85.5 L167.3 85.5 L167.3 94.6 L155.3 94.6 Z"></path>
				</g>
			</g>
		</g>
	</g>
	<g>
		<g>
			<defs>
				<path id="SVGID_5_" d="M175.3,73.1h-0.8c-0.6,0-1,0.5-1,1c0,0.6,0.5,1,1,1h0.8c0.6,0,1-0.5,1-1S175.9,73.1,175.3,73.1z" class="bYxDvmXI_6"></path>
			</defs>
			<clipPath id="SVGID_6_">
				<use xlink:href="#SVGID_5_" style="overflow:visible;"></use>
			</clipPath>
			<g class="st4">
				<g>
					<defs>
						<path id="SVGID_7_" width="250.4" height="130" d="M0.1 1.4 L250.5 1.4 L250.5 131.4 L0.1 131.4 Z" class="bYxDvmXI_7"></path>
					</defs>
					<clipPath id="SVGID_8_">
						<use xlink:href="#SVGID_7_" style="overflow:visible;"></use>
					</clipPath>
					<g class="st5">
						<g>
							<g>
								<defs>
									<path id="SVGID_9_" width="15.5" height="14.3" d="M167 67 L182.5 67 L182.5 81.3 L167 81.3 Z" class="bYxDvmXI_8"></path>
								</defs>
								<clipPath id="SVGID_10_">
									<use xlink:href="#SVGID_9_" style="overflow:visible;"></use>
								</clipPath>
								<g class="st6">
									<g>
										<defs>
											<path id="SVGID_11_" width="3.6" height="2.4" d="M173 72.9 L176.6 72.9 L176.6 75.30000000000001 L173 75.30000000000001 Z" class="bYxDvmXI_9"></path>
										</defs>
										<clipPath id="SVGID_12_">
											<use xlink:href="#SVGID_11_" style="overflow:visible;"></use>
										</clipPath>
										<path class="st7 bYxDvmXI_10" d="M175.3,73.1h-0.8c-0.6,0-1,0.5-1,1c0,0.6,0.5,1,1,1h0.8c0.6,0,1-0.5,1-1S175.9,73.1,175.3,73.1z"></path>
									</g>
								</g>
							</g>
						</g>
					</g>
				</g>
			</g>
		</g>
	</g>
	<g>
		<g>
			<defs>
				<path id="SVGID_13_" d="M146.8,73.1H146c-0.6,0-1,0.5-1,1c0,0.6,0.5,1,1,1h0.8c0.6,0,1-0.5,1-1S147.4,73.1,146.8,73.1z" class="bYxDvmXI_11"></path>
			</defs>
			<clipPath id="SVGID_14_">
				<use xlink:href="#SVGID_13_" style="overflow:visible;"></use>
			</clipPath>
			<g class="st8">
				<g>
					<defs>
						<path id="SVGID_15_" width="250.4" height="130" d="M0.1 1.4 L250.5 1.4 L250.5 131.4 L0.1 131.4 Z" class="bYxDvmXI_12"></path>
					</defs>
					<clipPath id="SVGID_16_">
						<use xlink:href="#SVGID_15_" style="overflow:visible;"></use>
					</clipPath>
					<g class="st9">
						<g>
							<g>
								<defs>
									<path id="SVGID_17_" width="15.5" height="14.3" d="M138.4 67 L153.9 67 L153.9 81.3 L138.4 81.3 Z" class="bYxDvmXI_13"></path>
								</defs>
								<clipPath id="SVGID_18_">
									<use xlink:href="#SVGID_17_" style="overflow:visible;"></use>
								</clipPath>
								<g class="st10">
									<g>
										<defs>
											<path id="SVGID_19_" width="3.6" height="2.4" d="M144.4 72.9 L148 72.9 L148 75.30000000000001 L144.4 75.30000000000001 Z" class="bYxDvmXI_14"></path>
										</defs>
										<clipPath id="SVGID_20_">
											<use xlink:href="#SVGID_19_" style="overflow:visible;"></use>
										</clipPath>
										<path class="st11 bYxDvmXI_15" d="M146.8,73.1H146c-0.6,0-1,0.5-1,1c0,0.6,0.5,1,1,1h0.8c0.6,0,1-0.5,1-1S147.4,73.1,146.8,73.1z"></path>
									</g>
								</g>
							</g>
						</g>
					</g>
				</g>
			</g>
		</g>
	</g>
	<g>
		<g>
			<defs>
				<path id="SVGID_21_" d="M162.3,96.1v-0.8c0-0.6-0.5-1-1-1s-1,0.5-1,1v0.8c0,0.6,0.5,1,1,1S162.3,96.6,162.3,96.1z" class="bYxDvmXI_16"></path>
			</defs>
			<clipPath id="SVGID_22_">
				<use xlink:href="#SVGID_21_" style="overflow:visible;"></use>
			</clipPath>
			<g class="st12">
				<g>
					<defs>
						<path id="SVGID_23_" width="250.4" height="130" d="M0.1 1.4 L250.5 1.4 L250.5 131.4 L0.1 131.4 Z" class="bYxDvmXI_17"></path>
					</defs>
					<clipPath id="SVGID_24_">
						<use xlink:href="#SVGID_23_" style="overflow:visible;"></use>
					</clipPath>
					<g class="st13">
						<g>
							<g>
								<defs>
									<path id="SVGID_25_" width="14.9" height="15.5" d="M153.9 87.8 L168.8 87.8 L168.8 103.3 L153.9 103.3 Z" class="bYxDvmXI_18"></path>
								</defs>
								<clipPath id="SVGID_26_">
									<use xlink:href="#SVGID_25_" style="overflow:visible;"></use>
								</clipPath>
								<g class="st14">
									<g>
										<defs>
											<path id="SVGID_27_" width="3" height="3.6" d="M159.9 93.8 L162.9 93.8 L162.9 97.39999999999999 L159.9 97.39999999999999 Z" class="bYxDvmXI_19"></path>
										</defs>
										<clipPath id="SVGID_28_">
											<use xlink:href="#SVGID_27_" style="overflow:visible;"></use>
										</clipPath>
										<path class="st15 bYxDvmXI_20" d="M162.3,96.1v-0.8c0-0.6-0.5-1-1-1c-0.6,0-1,0.5-1,1v0.8c0,0.6,0.5,1,1,1S162.3,96.6,162.3,96.1z"></path>
									</g>
								</g>
							</g>
						</g>
					</g>
				</g>
			</g>
		</g>
	</g>
	<g>
		<g>
			<defs>
				<path id="SVGID_29_" width="44.2" height="24" d="M138.7 73.1 L182.89999999999998 73.1 L182.89999999999998 97.1 L138.7 97.1 Z" class="bYxDvmXI_21"></path>
			</defs>
			<clipPath id="SVGID_30_">
				<use xlink:href="#SVGID_29_" style="overflow:visible;"></use>
			</clipPath>
			<g class="st16">
				<g>
					<defs>
						<path id="SVGID_31_" width="250.4" height="130" d="M0.1 1.4 L250.5 1.4 L250.5 131.4 L0.1 131.4 Z" class="bYxDvmXI_22"></path>
					</defs>
					<clipPath id="SVGID_32_">
						<use xlink:href="#SVGID_31_" style="overflow:visible;"></use>
					</clipPath>
					<path class="st17 bYxDvmXI_23" width="44.2" height="24" d="M138.7 73.1 L182.89999999999998 73.1 L182.89999999999998 97.1 L138.7 97.1 Z"></path>
				</g>
			</g>
		</g>
	</g>
	<path class="st1 bYxDvmXI_24" d="M73.6,82.9L73.6,92.9"></path>
	<path class="st0 bYxDvmXI_25" d="M4.2,81.4L4.2,81.4c-1.3,0-2.3-2.6-2.3-5.8s1-5.8,2.3-5.8"></path>
	<path class="st0 bYxDvmXI_26" d="M6.800000000000001,69.8A2.1,2.1 0,1,1 11,69.8A2.1,2.1 0,1,1 6.800000000000001,69.8"></path>
	<path class="st18 bYxDvmXI_27" d="M215.6,105.6A25.4,25.4 0,1,1 266.4,105.6A25.4,25.4 0,1,1 215.6,105.6"></path>
	<path class="st0 bYxDvmXI_28" d="M225.9,105.8A14.9,14.9 0,1,1 255.70000000000002,105.8A14.9,14.9 0,1,1 225.9,105.8"></path>
	<path class="st0 bYxDvmXI_29" d="M234.20000000000002,105.8A6.6,6.6 0,1,1 247.4,105.8A6.6,6.6 0,1,1 234.20000000000002,105.8"></path>
	<path class="st0 bYxDvmXI_30" d="M250.1,106.6c-0.6,0-1-0.5-1-1c0-0.6,0.5-1,1-1c0.6,0,1,0.5,1,1C251.2,106.1,250.7,106.6,250.1,106.6z"></path>
	<path class="st0 bYxDvmXI_31" d="M231.9,106.6c-0.6,0-1-0.5-1-1c0-0.6,0.5-1,1-1c0.6,0,1,0.5,1,1C233,106.1,232.5,106.6,231.9,106.6z"></path>
	<path class="st0 bYxDvmXI_32" d="M247.7,100c-0.6,0-1-0.5-1-1c0-0.6,0.5-1,1-1c0.6,0,1,0.5,1,1S248.2,100,247.7,100z"></path>
	<path class="st0 bYxDvmXI_33" d="M234.4,100c-0.6,0-1-0.5-1-1c0-0.6,0.5-1,1-1s1,0.5,1,1C235.5,99.5,235,100,234.4,100z"></path>
	<path class="st0 bYxDvmXI_34" d="M247.7,113.2c-0.6,0-1-0.5-1-1s0.5-1,1-1c0.6,0,1,0.5,1,1S248.2,113.2,247.7,113.2z"></path>
	<path class="st0 bYxDvmXI_35" d="M234.4,113.2c-0.6,0-1-0.5-1-1s0.5-1,1-1s1,0.5,1,1S235,113.2,234.4,113.2z"></path>
	<path class="st0 bYxDvmXI_36" d="M241,97.5c-0.6,0-1-0.5-1-1s0.5-1,1-1c0.6,0,1,0.5,1,1S241.6,97.5,241,97.5z"></path>
	<path class="st0 bYxDvmXI_37" d="M241,115.7c-0.6,0-1-0.5-1-1s0.5-1,1-1c0.6,0,1,0.5,1,1S241.6,115.7,241,115.7z"></path>
	<path class="st18 bYxDvmXI_38" d="M9.399999999999999,105.6A25.4,25.4 0,1,1 60.199999999999996,105.6A25.4,25.4 0,1,1 9.399999999999999,105.6"></path>
	<path class="st0 bYxDvmXI_39" d="M19.700000000000003,105.8A14.9,14.9 0,1,1 49.5,105.8A14.9,14.9 0,1,1 19.700000000000003,105.8"></path>
	<path class="st0 bYxDvmXI_40" d="M28,105.8A6.6,6.6 0,1,1 41.2,105.8A6.6,6.6 0,1,1 28,105.8"></path>
	<path class="st0 bYxDvmXI_41" d="M42.9,105.6A1,1 0,1,1 44.9,105.6A1,1 0,1,1 42.9,105.6"></path>
	<path class="st0 bYxDvmXI_42" d="M24.7,105.6A1,1 0,1,1 26.7,105.6A1,1 0,1,1 24.7,105.6"></path>
	<path class="st0 bYxDvmXI_43" d="M40.4,99A1,1 0,1,1 42.4,99A1,1 0,1,1 40.4,99"></path>
	<path class="st0 bYxDvmXI_44" d="M27.1,99A1,1 0,1,1 29.1,99A1,1 0,1,1 27.1,99"></path>
	<path class="st0 bYxDvmXI_45" d="M40.4,112.2A1,1 0,1,1 42.4,112.2A1,1 0,1,1 40.4,112.2"></path>
	<path class="st0 bYxDvmXI_46" d="M27.1,112.2A1,1 0,1,1 29.1,112.2A1,1 0,1,1 27.1,112.2"></path>
	<path class="st0 bYxDvmXI_47" d="M33.8,96.5A1,1 0,1,1 35.8,96.5A1,1 0,1,1 33.8,96.5"></path>
	<path class="st0 bYxDvmXI_48" d="M33.8,114.7A1,1 0,1,1 35.8,114.7A1,1 0,1,1 33.8,114.7"></path>
	<path class="st0 bYxDvmXI_49" d="M209.4,102.1c0-17.6,14.3-31.8,31.8-31.8S273,84.6,273,102.1l2.2,15.3"></path>
	<path class="st18 bYxDvmXI_50" d="M65.5,99.2c-8.4-14.1-13.1-22-14.3-23.7c-1.7-2.6-3.8-3.6-6.3-3.6s-18.1,0-25.2,0c-7.2,0-12.1,1.2-11,8.2
		c0.8,4.7,1.4,7.8,1.8,9.4l-1.8,2.8l-4.6-9.8V66.6c14.5-2.2,25.7-3.3,33.6-3.3c11.8,0,18-0.2,20.9,3.9C60.5,69.9,66,79.4,75,95.5
		l-6,1v2.7H65.5z"></path>
	<path class="st18 bYxDvmXI_51" d="M74.9,13.1c-1.2,2.1-2,5.1-2.9,8.8c-1.8,7.4-4.7,16.5-5.7,19.4s-1,5.3-13.2,5.3s-47.6,8-50.4,8.8
		c-2.8,0.8-1.4,26-1.4,27.5c0,1,1.4,1.9,4.1,2.7 M67.6,82.9c36.2,0,55.2,0,57,0c2.7,0,2.1-1.2,2.1-2.7s0-62.4,0-66.7
		c0-4.3-2.5-5-7.5-5S86.8,8.8,80.9,9.4"></path>
	<path class="st0 bYxDvmXI_52" d="M52.5,46.6L52.5,63.9"></path>
	<path class="st0 bYxDvmXI_53" d="M52.5,55.2L1.5,58.6"></path>
	<path class="st0 bYxDvmXI_54" d="M74.4,24.8l-6.9,21.8c-0.5,10.6-0.5,17.8,0,21.7c0.5,3.8,1.1,7.6,1.8,11.2c25.8,0,39.8,0,41.8,0
		c3,0,4.9-0.3,4.9-4.9s0-55.8,0-58.1s-1.3-4-3.3-4 M126.7,12.6H81.1"></path>
	<path class="st0 bYxDvmXI_55" d="M75.6,27.3l-2,13c-0.1,0.7,0.4,1.3,1,1.4c0.1,0,0.1,0,0.2,0h35.8c0.7,0,1.2-0.6,1.2-1.2v-24
		c0-0.7-0.6-1.2-1.2-1.2H81.1"></path>
	<path class="st0 bYxDvmXI_56" d="M120.8,8.4V7c-0.3-3.3-0.7-5-1.1-5c-0.6,0-3.1,0-3.7,0c-0.4,0-0.8,1.7-1.3,5v1.4"></path>
	<path class="st0 bYxDvmXI_57" d="M120.8,7L114.7,7"></path>
	<path class="st0 bYxDvmXI_58" d="M79.9,32.4c1.5,0,1.4,1.6,1.4,3.8s-1.2,6.1-2.9,5c-1.7-1.1-2.3-3-2.3-4.3C76,35.6,78.4,32.4,79.9,32.4z"></path>
	<path class="st0 bYxDvmXI_59" d="M80.6,39.8c-0.8,0-1.8-0.6-2.9-1.8"></path>
	<path class="st0 bYxDvmXI_60" d="M78.4,8.4c2.4,0,2.8,1.4,2.8,4.1s0,10.3-0.5,13.3s-1.7,3.5-2.6,3.5s-3.6-2.5-3.6-4.7s0.5-10.4,0.5-12
		C74.9,10.9,76,8.4,78.4,8.4z"></path>
	<path class="st0 bYxDvmXI_61" d="M75.9,13.9c0,18.1,0,27.7,0,28.6s1.9,1.6,5.8,1.9"></path>
	<g>
		<g>
			<defs>
				<path id="SVGID_33_" d="M82,46.7L82,46.7c-1.1,0-1.9,0.8-1.9,1.8V49c0,1,0.8,1.8,1.8,1.8H82c1,0,1.8-0.8,1.8-1.8v-0.6
					C83.7,47.5,82.9,46.7,82,46.7z" class="bYxDvmXI_62"></path>
			</defs>
			<clipPath id="SVGID_34_">
				<use xlink:href="#SVGID_33_" style="overflow:visible;"></use>
			</clipPath>
			<g class="st19">
				<g>
					<defs>
						<path id="SVGID_35_" width="250.4" height="130" d="M0.1 1.4 L250.5 1.4 L250.5 131.4 L0.1 131.4 Z" class="bYxDvmXI_63"></path>
					</defs>
					<clipPath id="SVGID_36_">
						<use xlink:href="#SVGID_35_" style="overflow:visible;"></use>
					</clipPath>
					<g class="st20">
						<g>
							<g>
								<defs>
									<path id="SVGID_37_" width="16.1" height="16.7" d="M74 40.2 L90.1 40.2 L90.1 56.900000000000006 L74 56.900000000000006 Z" class="bYxDvmXI_64"></path>
								</defs>
								<clipPath id="SVGID_38_">
									<use xlink:href="#SVGID_37_" style="overflow:visible;"></use>
								</clipPath>
								<g class="st21">
									<g>
										<defs>
											<path id="SVGID_39_" width="4.2" height="4.8" d="M80 46.1 L84.2 46.1 L84.2 50.9 L80 50.9 Z" class="bYxDvmXI_65"></path>
										</defs>
										<clipPath id="SVGID_40_">
											<use xlink:href="#SVGID_39_" style="overflow:visible;"></use>
										</clipPath>
										<path class="st22 bYxDvmXI_66" d="M82,46.7L82,46.7c-1.1,0-1.9,0.8-1.9,1.8V49c0,1,0.8,1.8,1.8,1.8H82c1,0,1.8-0.8,1.8-1.8v-0.6
											C83.7,47.5,82.9,46.7,82,46.7z"></path>
									</g>
								</g>
							</g>
						</g>
					</g>
				</g>
			</g>
		</g>
	</g>
	<path class="st0 bYxDvmXI_67" d="M108.9,49.8A2.3,1 0,1,1 113.5,49.8A2.3,1 0,1,1 108.9,49.8"></path>
	<path class="st1 bYxDvmXI_68" d="M109,49.8L102.9,49.8"></path>
	<g>
		<g>
			<defs>
				<path id="SVGID_41_" d="M130.3,85.5h-21.2c-1,0-1.8,0.8-1.8,1.8v13.4c0,1,0.8,1.8,1.8,1.8h21.2c1,0,1.8-0.8,1.8-1.8V87.3
					C132.1,86.3,131.3,85.5,130.3,85.5z" class="bYxDvmXI_69"></path>
			</defs>
			<clipPath id="SVGID_42_">
				<use xlink:href="#SVGID_41_" style="overflow:visible;"></use>
			</clipPath>
			<g class="st23">
				<g>
					<defs>
						<path id="SVGID_43_" width="250.4" height="130" d="M0.1 1.4 L250.5 1.4 L250.5 131.4 L0.1 131.4 Z" class="bYxDvmXI_70"></path>
					</defs>
					<clipPath id="SVGID_44_">
						<use xlink:href="#SVGID_43_" style="overflow:visible;"></use>
					</clipPath>
					<g class="st24">
						<g>
							<g>
								<defs>
									<path id="SVGID_45_" width="37.6" height="29.2" d="M100.8 79.5 L138.4 79.5 L138.4 108.7 L100.8 108.7 Z" class="bYxDvmXI_71"></path>
								</defs>
								<clipPath id="SVGID_46_">
									<use xlink:href="#SVGID_45_" style="overflow:visible;"></use>
								</clipPath>
								<g class="st25">
									<g>
										<defs>
											<path id="SVGID_47_" width="25.6" height="17.3" d="M106.8 85.5 L132.4 85.5 L132.4 102.8 L106.8 102.8 Z" class="bYxDvmXI_72"></path>
										</defs>
										<clipPath id="SVGID_48_">
											<use xlink:href="#SVGID_47_" style="overflow:visible;"></use>
										</clipPath>
										<path class="st26 bYxDvmXI_73" d="M130.3,85.5h-21.2c-1,0-1.8,0.8-1.8,1.8v13.4c0,1,0.8,1.8,1.8,1.8h21.2c1,0,1.8-0.8,1.8-1.8V87.3
											C132.1,86.3,131.3,85.5,130.3,85.5z"></path>
									</g>
								</g>
							</g>
						</g>
					</g>
				</g>
			</g>
		</g>
	</g>
	<path class="st0 bYxDvmXI_74" d="M132.1,97.5L107.3,97.5"></path>
	<path class="st0 bYxDvmXI_75" d="M132.1,99.2L107.3,99.2"></path>
	<path class="st0 bYxDvmXI_76" d="M125.7,97.5L125.7,85.6"></path>
	<path class="st0 bYxDvmXI_77" d="M113.5,97.5L113.5,85.6"></path>
	<path class="st0 bYxDvmXI_78" d="M105.9,82.9v21.6c-10.8,0-18.9,0-24.3,0c-5.4,0-9.6-1.8-12.8-5.4"></path>
	<path class="st0 bYxDvmXI_79" d="M105.9,85.6L73.6,85.6"></path>
	<path class="st0 bYxDvmXI_80" d="M105.9,90.9L73.6,90.9"></path>
	<path class="st0 bYxDvmXI_81" d="M105.9,96.3L70.8,96.3"></path>
	<g>
		<g>
			<defs>
				<path id="SVGID_49_" width="48.4" height="28.1" d="M136.7 71.1 L185.1 71.1 L185.1 99.19999999999999 L136.7 99.19999999999999 Z" class="bYxDvmXI_82"></path>
			</defs>
			<clipPath id="SVGID_50_">
				<use xlink:href="#SVGID_49_" style="overflow:visible;"></use>
			</clipPath>
			<g class="st27">
				<g>
					<defs>
						<path id="SVGID_51_" width="250.4" height="130" d="M0.1 1.4 L250.5 1.4 L250.5 131.4 L0.1 131.4 Z" class="bYxDvmXI_83"></path>
					</defs>
					<clipPath id="SVGID_52_">
						<use xlink:href="#SVGID_51_" style="overflow:visible;"></use>
					</clipPath>
					<path class="st28 bYxDvmXI_84" width="48.4" height="28.1" d="M136.7 71.1 L185.1 71.1 L185.1 99.19999999999999 L136.7 99.19999999999999 Z"></path>
				</g>
			</g>
		</g>
	</g>
	<path class="st1 bYxDvmXI_85" d="M215.6,103.9L124.9,103.9L124.9,102.5"></path>
	<path class="st0 bYxDvmXI_86" d="M185,81.2L217.1,81.2"></path>
	<path class="st0 bYxDvmXI_87" d="M185,77.3L220.8,77.3"></path>
	<g>
		<g>
			<defs>
				<path id="SVGID_53_" width="167.4" height="7.9" d="M143.3 52.5 L310.70000000000005 52.5 L310.70000000000005 60.4 L143.3 60.4 Z" class="bYxDvmXI_88"></path>
			</defs>
			<clipPath id="SVGID_54_">
				<use xlink:href="#SVGID_53_" style="overflow:visible;"></use>
			</clipPath>
			<path class="st29 bYxDvmXI_89" width="167.4" height="7.9" d="M143.3 52.5 L310.70000000000005 52.5 L310.70000000000005 60.4 L143.3 60.4 Z"></path>
		</g>
	</g>
	<path class="st18 bYxDvmXI_90" d="M250.1,71.3l52.3-3.3v-7.7 M185.1,73.1l44.8-1 M302.4,52.8V20.2H137.9v51.1"></path>
	<path class="st0 bYxDvmXI_91" d="M150.3,60.4c-1.6,5-4.2,8.9-7.1,11 M137.9,20.2c8,0,14.5,11.8,14.5,26.5c0,2.2-0.1,4.2-0.4,6.2"></path>
	<path class="st0 bYxDvmXI_92" d="M229.1,52.5L229.1,60.3"></path>
	<path class="st0 bYxDvmXI_93" d="M162.1,52.5L162.1,60.3"></path>
	<path class="st0 bYxDvmXI_94" d="M227,52.5L227,60.3"></path>
	<path class="st0 bYxDvmXI_95" d="M160,52.5L160,60.3"></path>
	<path class="st0 bYxDvmXI_96" d="M126.7,82.9L136.7,82.9"></path>
</g>
<style data-made-with="vivus-instant">.bYxDvmXI_0{stroke-dasharray:86 88;stroke-dashoffset:87;animation:bYxDvmXI_draw 933ms linear 0ms forwards;}.bYxDvmXI_1{stroke-dasharray:82 84;stroke-dashoffset:83;animation:bYxDvmXI_draw 933ms linear 4ms forwards;}.bYxDvmXI_2{stroke-dasharray:31 33;stroke-dashoffset:32;animation:bYxDvmXI_draw 933ms linear 9ms forwards;}.bYxDvmXI_3{stroke-dasharray:43 45;stroke-dashoffset:44;animation:bYxDvmXI_draw 933ms linear 14ms forwards;}.bYxDvmXI_4{stroke-dasharray:761 763;stroke-dashoffset:762;animation:bYxDvmXI_draw 933ms linear 19ms forwards;}.bYxDvmXI_5{stroke-dasharray:43 45;stroke-dashoffset:44;animation:bYxDvmXI_draw 933ms linear 24ms forwards;}.bYxDvmXI_6{stroke-dasharray:8 10;stroke-dashoffset:9;animation:bYxDvmXI_draw 933ms linear 29ms forwards;}.bYxDvmXI_7{stroke-dasharray:761 763;stroke-dashoffset:762;animation:bYxDvmXI_draw 933ms linear 34ms forwards;}.bYxDvmXI_8{stroke-dasharray:60 62;stroke-dashoffset:61;animation:bYxDvmXI_draw 933ms linear 38ms forwards;}.bYxDvmXI_9{stroke-dasharray:13 15;stroke-dashoffset:14;animation:bYxDvmXI_draw 933ms linear 43ms forwards;}.bYxDvmXI_10{stroke-dasharray:8 10;stroke-dashoffset:9;animation:bYxDvmXI_draw 933ms linear 48ms forwards;}.bYxDvmXI_11{stroke-dasharray:8 10;stroke-dashoffset:9;animation:bYxDvmXI_draw 933ms linear 53ms forwards;}.bYxDvmXI_12{stroke-dasharray:761 763;stroke-dashoffset:762;animation:bYxDvmXI_draw 933ms linear 58ms forwards;}.bYxDvmXI_13{stroke-dasharray:60 62;stroke-dashoffset:61;animation:bYxDvmXI_draw 933ms linear 63ms forwards;}.bYxDvmXI_14{stroke-dasharray:13 15;stroke-dashoffset:14;animation:bYxDvmXI_draw 933ms linear 68ms forwards;}.bYxDvmXI_15{stroke-dasharray:8 10;stroke-dashoffset:9;animation:bYxDvmXI_draw 933ms linear 72ms forwards;}.bYxDvmXI_16{stroke-dasharray:8 10;stroke-dashoffset:9;animation:bYxDvmXI_draw 933ms linear 77ms forwards;}.bYxDvmXI_17{stroke-dasharray:761 763;stroke-dashoffset:762;animation:bYxDvmXI_draw 933ms linear 82ms forwards;}.bYxDvmXI_18{stroke-dasharray:61 63;stroke-dashoffset:62;animation:bYxDvmXI_draw 933ms linear 87ms forwards;}.bYxDvmXI_19{stroke-dasharray:14 16;stroke-dashoffset:15;animation:bYxDvmXI_draw 933ms linear 92ms forwards;}.bYxDvmXI_20{stroke-dasharray:8 10;stroke-dashoffset:9;animation:bYxDvmXI_draw 933ms linear 97ms forwards;}.bYxDvmXI_21{stroke-dasharray:137 139;stroke-dashoffset:138;animation:bYxDvmXI_draw 933ms linear 102ms forwards;}.bYxDvmXI_22{stroke-dasharray:761 763;stroke-dashoffset:762;animation:bYxDvmXI_draw 933ms linear 106ms forwards;}.bYxDvmXI_23{stroke-dasharray:137 139;stroke-dashoffset:138;animation:bYxDvmXI_draw 933ms linear 111ms forwards;}.bYxDvmXI_24{stroke-dasharray:10 12;stroke-dashoffset:11;animation:bYxDvmXI_draw 933ms linear 116ms forwards;}.bYxDvmXI_25{stroke-dasharray:14 16;stroke-dashoffset:15;animation:bYxDvmXI_draw 933ms linear 121ms forwards;}.bYxDvmXI_26{stroke-dasharray:14 16;stroke-dashoffset:15;animation:bYxDvmXI_draw 933ms linear 126ms forwards;}.bYxDvmXI_27{stroke-dasharray:160 162;stroke-dashoffset:161;animation:bYxDvmXI_draw 933ms linear 131ms forwards;}.bYxDvmXI_28{stroke-dasharray:94 96;stroke-dashoffset:95;animation:bYxDvmXI_draw 933ms linear 136ms forwards;}.bYxDvmXI_29{stroke-dasharray:42 44;stroke-dashoffset:43;animation:bYxDvmXI_draw 933ms linear 140ms forwards;}.bYxDvmXI_30{stroke-dasharray:7 9;stroke-dashoffset:8;animation:bYxDvmXI_draw 933ms linear 145ms forwards;}.bYxDvmXI_31{stroke-dasharray:7 9;stroke-dashoffset:8;animation:bYxDvmXI_draw 933ms linear 150ms forwards;}.bYxDvmXI_32{stroke-dasharray:7 9;stroke-dashoffset:8;animation:bYxDvmXI_draw 933ms linear 155ms forwards;}.bYxDvmXI_33{stroke-dasharray:7 9;stroke-dashoffset:8;animation:bYxDvmXI_draw 933ms linear 160ms forwards;}.bYxDvmXI_34{stroke-dasharray:7 9;stroke-dashoffset:8;animation:bYxDvmXI_draw 933ms linear 165ms forwards;}.bYxDvmXI_35{stroke-dasharray:7 9;stroke-dashoffset:8;animation:bYxDvmXI_draw 933ms linear 170ms forwards;}.bYxDvmXI_36{stroke-dasharray:7 9;stroke-dashoffset:8;animation:bYxDvmXI_draw 933ms linear 175ms forwards;}.bYxDvmXI_37{stroke-dasharray:7 9;stroke-dashoffset:8;animation:bYxDvmXI_draw 933ms linear 179ms forwards;}.bYxDvmXI_38{stroke-dasharray:160 162;stroke-dashoffset:161;animation:bYxDvmXI_draw 933ms linear 184ms forwards;}.bYxDvmXI_39{stroke-dasharray:94 96;stroke-dashoffset:95;animation:bYxDvmXI_draw 933ms linear 189ms forwards;}.bYxDvmXI_40{stroke-dasharray:42 44;stroke-dashoffset:43;animation:bYxDvmXI_draw 933ms linear 194ms forwards;}.bYxDvmXI_41{stroke-dasharray:7 9;stroke-dashoffset:8;animation:bYxDvmXI_draw 933ms linear 199ms forwards;}.bYxDvmXI_42{stroke-dasharray:7 9;stroke-dashoffset:8;animation:bYxDvmXI_draw 933ms linear 204ms forwards;}.bYxDvmXI_43{stroke-dasharray:7 9;stroke-dashoffset:8;animation:bYxDvmXI_draw 933ms linear 209ms forwards;}.bYxDvmXI_44{stroke-dasharray:7 9;stroke-dashoffset:8;animation:bYxDvmXI_draw 933ms linear 213ms forwards;}.bYxDvmXI_45{stroke-dasharray:7 9;stroke-dashoffset:8;animation:bYxDvmXI_draw 933ms linear 218ms forwards;}.bYxDvmXI_46{stroke-dasharray:7 9;stroke-dashoffset:8;animation:bYxDvmXI_draw 933ms linear 223ms forwards;}.bYxDvmXI_47{stroke-dasharray:7 9;stroke-dashoffset:8;animation:bYxDvmXI_draw 933ms linear 228ms forwards;}.bYxDvmXI_48{stroke-dasharray:7 9;stroke-dashoffset:8;animation:bYxDvmXI_draw 933ms linear 233ms forwards;}.bYxDvmXI_49{stroke-dasharray:116 118;stroke-dashoffset:117;animation:bYxDvmXI_draw 933ms linear 238ms forwards;}.bYxDvmXI_50{stroke-dasharray:218 220;stroke-dashoffset:219;animation:bYxDvmXI_draw 933ms linear 243ms forwards;}.bYxDvmXI_51{stroke-dasharray:307 309;stroke-dashoffset:308;animation:bYxDvmXI_draw 933ms linear 247ms forwards;}.bYxDvmXI_52{stroke-dasharray:18 20;stroke-dashoffset:19;animation:bYxDvmXI_draw 933ms linear 252ms forwards;}.bYxDvmXI_53{stroke-dasharray:52 54;stroke-dashoffset:53;animation:bYxDvmXI_draw 933ms linear 257ms forwards;}.bYxDvmXI_54{stroke-dasharray:216 218;stroke-dashoffset:217;animation:bYxDvmXI_draw 933ms linear 262ms forwards;}.bYxDvmXI_55{stroke-dasharray:109 111;stroke-dashoffset:110;animation:bYxDvmXI_draw 933ms linear 267ms forwards;}.bYxDvmXI_56{stroke-dasharray:17 19;stroke-dashoffset:18;animation:bYxDvmXI_draw 933ms linear 272ms forwards;}.bYxDvmXI_57{stroke-dasharray:7 9;stroke-dashoffset:8;animation:bYxDvmXI_draw 933ms linear 277ms forwards;}.bYxDvmXI_58{stroke-dasharray:23 25;stroke-dashoffset:24;animation:bYxDvmXI_draw 933ms linear 281ms forwards;}.bYxDvmXI_59{stroke-dasharray:4 6;stroke-dashoffset:5;animation:bYxDvmXI_draw 933ms linear 286ms forwards;}.bYxDvmXI_60{stroke-dasharray:49 51;stroke-dashoffset:50;animation:bYxDvmXI_draw 933ms linear 291ms forwards;}.bYxDvmXI_61{stroke-dasharray:35 37;stroke-dashoffset:36;animation:bYxDvmXI_draw 933ms linear 296ms forwards;}.bYxDvmXI_62{stroke-dasharray:13 15;stroke-dashoffset:14;animation:bYxDvmXI_draw 933ms linear 301ms forwards;}.bYxDvmXI_63{stroke-dasharray:761 763;stroke-dashoffset:762;animation:bYxDvmXI_draw 933ms linear 306ms forwards;}.bYxDvmXI_64{stroke-dasharray:66 68;stroke-dashoffset:67;animation:bYxDvmXI_draw 933ms linear 311ms forwards;}.bYxDvmXI_65{stroke-dasharray:18 20;stroke-dashoffset:19;animation:bYxDvmXI_draw 933ms linear 315ms forwards;}.bYxDvmXI_66{stroke-dasharray:13 15;stroke-dashoffset:14;animation:bYxDvmXI_draw 933ms linear 320ms forwards;}.bYxDvmXI_67{stroke-dasharray:11 13;stroke-dashoffset:12;animation:bYxDvmXI_draw 933ms linear 325ms forwards;}.bYxDvmXI_68{stroke-dasharray:7 9;stroke-dashoffset:8;animation:bYxDvmXI_draw 933ms linear 330ms forwards;}.bYxDvmXI_69{stroke-dasharray:81 83;stroke-dashoffset:82;animation:bYxDvmXI_draw 933ms linear 335ms forwards;}.bYxDvmXI_70{stroke-dasharray:761 763;stroke-dashoffset:762;animation:bYxDvmXI_draw 933ms linear 340ms forwards;}.bYxDvmXI_71{stroke-dasharray:134 136;stroke-dashoffset:135;animation:bYxDvmXI_draw 933ms linear 345ms forwards;}.bYxDvmXI_72{stroke-dasharray:86 88;stroke-dashoffset:87;animation:bYxDvmXI_draw 933ms linear 350ms forwards;}.bYxDvmXI_73{stroke-dasharray:81 83;stroke-dashoffset:82;animation:bYxDvmXI_draw 933ms linear 354ms forwards;}.bYxDvmXI_74{stroke-dasharray:25 27;stroke-dashoffset:26;animation:bYxDvmXI_draw 933ms linear 359ms forwards;}.bYxDvmXI_75{stroke-dasharray:25 27;stroke-dashoffset:26;animation:bYxDvmXI_draw 933ms linear 364ms forwards;}.bYxDvmXI_76{stroke-dasharray:12 14;stroke-dashoffset:13;animation:bYxDvmXI_draw 933ms linear 369ms forwards;}.bYxDvmXI_77{stroke-dasharray:12 14;stroke-dashoffset:13;animation:bYxDvmXI_draw 933ms linear 374ms forwards;}.bYxDvmXI_78{stroke-dasharray:61 63;stroke-dashoffset:62;animation:bYxDvmXI_draw 933ms linear 379ms forwards;}.bYxDvmXI_79{stroke-dasharray:33 35;stroke-dashoffset:34;animation:bYxDvmXI_draw 933ms linear 384ms forwards;}.bYxDvmXI_80{stroke-dasharray:33 35;stroke-dashoffset:34;animation:bYxDvmXI_draw 933ms linear 388ms forwards;}.bYxDvmXI_81{stroke-dasharray:36 38;stroke-dashoffset:37;animation:bYxDvmXI_draw 933ms linear 393ms forwards;}.bYxDvmXI_82{stroke-dasharray:154 156;stroke-dashoffset:155;animation:bYxDvmXI_draw 933ms linear 398ms forwards;}.bYxDvmXI_83{stroke-dasharray:761 763;stroke-dashoffset:762;animation:bYxDvmXI_draw 933ms linear 403ms forwards;}.bYxDvmXI_84{stroke-dasharray:154 156;stroke-dashoffset:155;animation:bYxDvmXI_draw 933ms linear 408ms forwards;}.bYxDvmXI_85{stroke-dasharray:93 95;stroke-dashoffset:94;animation:bYxDvmXI_draw 933ms linear 413ms forwards;}.bYxDvmXI_86{stroke-dasharray:33 35;stroke-dashoffset:34;animation:bYxDvmXI_draw 933ms linear 418ms forwards;}.bYxDvmXI_87{stroke-dasharray:36 38;stroke-dashoffset:37;animation:bYxDvmXI_draw 933ms linear 422ms forwards;}.bYxDvmXI_88{stroke-dasharray:351 353;stroke-dashoffset:352;animation:bYxDvmXI_draw 933ms linear 427ms forwards;}.bYxDvmXI_89{stroke-dasharray:351 353;stroke-dashoffset:352;animation:bYxDvmXI_draw 933ms linear 432ms forwards;}.bYxDvmXI_90{stroke-dasharray:354 356;stroke-dashoffset:355;animation:bYxDvmXI_draw 933ms linear 437ms forwards;}.bYxDvmXI_91{stroke-dasharray:53 55;stroke-dashoffset:54;animation:bYxDvmXI_draw 933ms linear 442ms forwards;}.bYxDvmXI_92{stroke-dasharray:8 10;stroke-dashoffset:9;animation:bYxDvmXI_draw 933ms linear 447ms forwards;}.bYxDvmXI_93{stroke-dasharray:8 10;stroke-dashoffset:9;animation:bYxDvmXI_draw 933ms linear 452ms forwards;}.bYxDvmXI_94{stroke-dasharray:8 10;stroke-dashoffset:9;animation:bYxDvmXI_draw 933ms linear 456ms forwards;}.bYxDvmXI_95{stroke-dasharray:8 10;stroke-dashoffset:9;animation:bYxDvmXI_draw 933ms linear 461ms forwards;}.bYxDvmXI_96{stroke-dasharray:10 12;stroke-dashoffset:11;animation:bYxDvmXI_draw 933ms linear 466ms forwards;}@keyframes bYxDvmXI_draw{100%{stroke-dashoffset:0;}}@keyframes bYxDvmXI_fade{0%{stroke-opacity:1;}92.85714285714286%{stroke-opacity:1;}100%{stroke-opacity:0;}}</style></svg>
