<svg xmlns="http://www.w3.org/2000/svg" xmlns:xlink="http://www.w3.org/1999/xlink" viewBox="0 0 311 132"><style><![CDATA[.e{stroke-miterlimit:10}.f{fill:none}.g{stroke:#cce1f5}.h{stroke-width:2}.i{enable-background:new}.j{stroke-linecap:square}]]></style><g class="e f g"><path d="M230.1 8.6h31v11.6h-31zm-52.1 0h29.4v11.6H178z"/><path d="M185 82.9h30.6" class="j"/></g><defs><path id="A" d="M155.3 85.5h12v9.1h-12z"/><path id="B" d="M250.1 106.6c-.6 0-1-.5-1-1 0-.6.5-1 1-1 .6 0 1 .5 1 1 .1.5-.4 1-1 1z"/><path id="C" d="M241 97.5c-.6 0-1-.5-1-1a1.08 1.08 0 0 1 1-1c.6 0 1 .5 1 1s-.4 1-1 1z"/></defs><clipPath id="D"><use xlink:href="#A"/></clipPath><g clip-path="url(#D)"><defs><path id="E" d="M.1 1.4h250.4v130H.1z"/></defs><clipPath id="F"><use xlink:href="#E"/></clipPath><path d="M155.3 85.5h12v9.1h-12z" clip-path="url(#F)" class="e f g h"/></g><defs><path id="G" d="M175.3 73.1h-.8c-.6 0-1 .5-1 1 0 .6.5 1 1 1h.8c.6 0 1-.5 1-1s-.4-1-1-1z"/></defs><clipPath id="H"><use xlink:href="#G"/></clipPath><g clip-path="url(#H)"><defs><path id="I" d="M.1 1.4h250.4v130H.1z"/></defs><clipPath id="J"><use xlink:href="#I"/></clipPath><g clip-path="url(#J)" class="i"><defs><path id="K" d="M167 67h15.5v14.3H167z"/></defs><clipPath id="L"><use xlink:href="#K"/></clipPath><g clip-path="url(#L)"><defs><path id="M" d="M173 72.9h3.6v2.4H173z"/></defs><clipPath id="N"><use xlink:href="#M"/></clipPath><path d="M175.3 73.1h-.8c-.6 0-1 .5-1 1 0 .6.5 1 1 1h.8c.6 0 1-.5 1-1s-.4-1-1-1z" clip-path="url(#N)" class="e f g h"/></g></g></g><defs><path id="O" d="M146.8 73.1h-.8c-.6 0-1 .5-1 1 0 .6.5 1 1 1h.8c.6 0 1-.5 1-1s-.4-1-1-1z"/></defs><clipPath id="P"><use xlink:href="#O"/></clipPath><g clip-path="url(#P)"><defs><path id="Q" d="M.1 1.4h250.4v130H.1z"/></defs><clipPath id="R"><use xlink:href="#Q"/></clipPath><g clip-path="url(#R)" class="i"><defs><path id="S" d="M138.4 67h15.5v14.3h-15.5z"/></defs><clipPath id="T"><use xlink:href="#S"/></clipPath><g clip-path="url(#T)"><defs><path id="U" d="M144.4 72.9h3.6v2.4h-3.6z"/></defs><clipPath id="V"><use xlink:href="#U"/></clipPath><path d="M146.8 73.1h-.8c-.6 0-1 .5-1 1 0 .6.5 1 1 1h.8c.6 0 1-.5 1-1s-.4-1-1-1z" clip-path="url(#V)" class="e f g h"/></g></g></g><defs><path id="W" d="M162.3,96.1v-0.8c0-0.6-0.5-1-1-1s-1,0.5-1,1v0.8c0,0.6,0.5,1,1,1S162.3,96.6,162.3,96.1z"/></defs><clipPath id="X"><use xlink:href="#W"/></clipPath><g clip-path="url(#X)"><defs><path id="Y" d="M.1 1.4h250.4v130H.1z"/></defs><clipPath id="Z"><use xlink:href="#Y"/></clipPath><g clip-path="url(#Z)" class="i"><defs><path id="a" d="M153.9 87.8h14.9v15.5h-14.9z"/></defs><clipPath id="b"><use xlink:href="#a"/></clipPath><g clip-path="url(#b)"><defs><path id="c" d="M159.9 93.8h3v3.6h-3z"/></defs><clipPath id="d"><use xlink:href="#c"/></clipPath><path d="M162.3 96.1v-.8c0-.6-.5-1-1-1-.6 0-1 .5-1 1v.8c0 .6.5 1 1 1a1.08 1.08 0 0 0 1-1z" clip-path="url(#d)" class="e f g h"/></g></g></g><defs><path id="e" d="M138.7 73.1h44.2v24h-44.2z"/></defs><clipPath id="f"><use xlink:href="#e"/></clipPath><g clip-path="url(#f)"><defs><path id="g" d="M.1 1.4h250.4v130H.1z"/></defs><clipPath id="h"><use xlink:href="#g"/></clipPath><path d="M138.7 73.1h44.2v24h-44.2z" clip-path="url(#h)" class="e f g h"/></g><g class="f g"><g class="e"><path d="M73.6 82.9v10" class="j"/><path d="M4.2 81.4c-1.3 0-2.3-2.6-2.3-5.8s1-5.8 2.3-5.8"/></g><circle cx="8.9" cy="69.8" r="2.1"/><circle cx="241" cy="105.6" r="25.4" class="h"/><circle cx="240.8" cy="105.8" r="14.9"/><circle cx="240.8" cy="105.8" r="6.6"/><g class="e"><use xlink:href="#B"/><use xlink:href="#B" x="-18.2"/><path d="M247.7 100c-.6 0-1-.5-1-1 0-.6.5-1 1-1 .6 0 1 .5 1 1a1.08 1.08 0 0 1-1 1zm-13.3 0c-.6 0-1-.5-1-1 0-.6.5-1 1-1a1.08 1.08 0 0 1 1 1c.1.5-.4 1-1 1zm13.3 13.2c-.6 0-1-.5-1-1a1.08 1.08 0 0 1 1-1c.6 0 1 .5 1 1a1.08 1.08 0 0 1-1 1zm-13.3 0c-.6 0-1-.5-1-1a1.08 1.08 0 0 1 1-1 1.08 1.08 0 0 1 1 1c0 .5-.4 1-1 1z"/><use xlink:href="#C"/><use xlink:href="#C" y="18.2"/></g><circle cx="34.8" cy="105.6" r="25.4" class="h"/><circle cx="34.6" cy="105.8" r="14.9"/><circle cx="34.6" cy="105.8" r="6.6"/><circle cx="43.9" cy="105.6" r="1"/><circle cx="25.7" cy="105.6" r="1"/><circle cx="41.4" cy="99" r="1"/><circle cx="28.1" cy="99" r="1"/><circle cx="41.4" cy="112.2" r="1"/><circle cx="28.1" cy="112.2" r="1"/><circle cx="34.8" cy="96.5" r="1"/><circle cx="34.8" cy="114.7" r="1"/><g class="e"><path d="M209.4,102.1c0-17.6,14.3-31.8,31.8-31.8S273,84.6,273,102.1l2.2,15.3"/><g class="h"><path d="M65.5 99.2L51.2 75.5c-1.7-2.6-3.8-3.6-6.3-3.6H19.7c-7.2 0-12.1 1.2-11 8.2.8 4.7 1.4 7.8 1.8 9.4l-1.8 2.8-4.6-9.8V66.6c14.5-2.2 25.7-3.3 33.6-3.3 11.8 0 18-.2 20.9 3.9C60.5 69.9 66 79.4 75 95.5l-6 1v2.7h-3.5z"/><path d="M74.9 13.1c-1.2 2.1-2 5.1-2.9 8.8-1.8 7.4-4.7 16.5-5.7 19.4s-1 5.3-13.2 5.3-47.6 8-50.4 8.8-1.4 26-1.4 27.5c0 1 1.4 1.9 4.1 2.7m62.2-2.7h57c2.7 0 2.1-1.2 2.1-2.7V13.5c0-4.3-2.5-5-7.5-5s-32.4.3-38.3.9"/></g><path d="M52.5 46.6v17.3m0-8.7l-51 3.4m72.9-33.8l-6.9 21.8c-.5 10.6-.5 17.8 0 21.7.5 3.8 1.1 7.6 1.8 11.2h41.8c3 0 4.9-.3 4.9-4.9V16.5c0-2.3-1.3-4-3.3-4m14 .1H81.1m-5.5 14.7l-2 13c-.1.7.4 1.3 1 1.4h36c.7 0 1.2-.6 1.2-1.2v-24c0-.7-.6-1.2-1.2-1.2H81.1m39.7-6.9V7c-.3-3.3-.7-5-1.1-5H116c-.4 0-.8 1.7-1.3 5v1.4"/><path d="M120.8 7h-6.1M79.9 32.4c1.5 0 1.4 1.6 1.4 3.8s-1.2 6.1-2.9 5-2.3-3-2.3-4.3c-.1-1.3 2.3-4.5 3.8-4.5z"/><path d="M80.6 39.8c-.8 0-1.8-.6-2.9-1.8m.7-29.6c2.4 0 2.8 1.4 2.8 4.1s0 10.3-.5 13.3-1.7 3.5-2.6 3.5-3.6-2.5-3.6-4.7.5-10.4.5-12c-.1-1.7 1-4.2 3.4-4.2z"/><path d="M75.9 13.9v28.6c0 .9 1.9 1.6 5.8 1.9"/></g></g><defs><path id="i" d="M82 46.7c-1.1 0-1.9.8-1.9 1.8v.5a1.79 1.79 0 0 0 1.8 1.8h.1a1.79 1.79 0 0 0 1.8-1.8v-.6c-.1-.9-.9-1.7-1.8-1.7z"/></defs><clipPath id="j"><use xlink:href="#i"/></clipPath><g clip-path="url(#j)"><defs><path id="k" d="M.1 1.4h250.4v130H.1z"/></defs><clipPath id="l"><use xlink:href="#k"/></clipPath><g clip-path="url(#l)" class="i"><defs><path id="m" d="M74 40.2h16.1v16.7H74z"/></defs><clipPath id="n"><use xlink:href="#m"/></clipPath><g clip-path="url(#n)"><defs><path id="o" d="M80 46.1h4.2v4.8H80z"/></defs><clipPath id="p"><use xlink:href="#o"/></clipPath><path d="M82 46.7c-1.1 0-1.9.8-1.9 1.8v.5a1.79 1.79 0 0 0 1.8 1.8h.1a1.79 1.79 0 0 0 1.8-1.8v-.6c-.1-.9-.9-1.7-1.8-1.7z" clip-path="url(#p)" class="e f g h"/></g></g></g><g class="f g"><ellipse cx="111.2" cy="49.8" rx="2.3" ry="1"/><path d="M109 49.8h-6.1" class="e j"/></g><defs><path id="q" d="M130.3 85.5h-21.2a1.79 1.79 0 0 0-1.8 1.8v13.4a1.79 1.79 0 0 0 1.8 1.8h21.2a1.79 1.79 0 0 0 1.8-1.8V87.3a1.79 1.79 0 0 0-1.8-1.8z"/></defs><clipPath id="r"><use xlink:href="#q"/></clipPath><g clip-path="url(#r)"><defs><path id="s" d="M.1 1.4h250.4v130H.1z"/></defs><clipPath id="t"><use xlink:href="#s"/></clipPath><g clip-path="url(#t)" class="i"><defs><path id="u" d="M100.8 79.5h37.6v29.2h-37.6z"/></defs><clipPath id="v"><use xlink:href="#u"/></clipPath><g clip-path="url(#v)"><defs><path id="w" d="M106.8 85.5h25.6v17.3h-25.6z"/></defs><clipPath id="x"><use xlink:href="#w"/></clipPath><path d="M130.3 85.5h-21.2a1.79 1.79 0 0 0-1.8 1.8v13.4a1.79 1.79 0 0 0 1.8 1.8h21.2a1.79 1.79 0 0 0 1.8-1.8V87.3a1.79 1.79 0 0 0-1.8-1.8z" clip-path="url(#x)" class="e f g h"/></g></g></g><g class="e f g"><path d="M132.1 97.5h-24.8m24.8 1.7h-24.8m18.4-1.7V85.6m-12.2 11.9V85.6m-7.6-2.7v21.6H81.6c-5.4 0-9.6-1.8-12.8-5.4"/><path d="M105.9 85.6H73.6m32.3 5.3H73.6m32.3 5.4H70.8"/></g><defs><path id="y" d="M136.7 71.1h48.4v28.1h-48.4z"/></defs><clipPath id="z"><use xlink:href="#y"/></clipPath><g clip-path="url(#z)"><defs><path id="AA" d="M.1 1.4h250.4v130H.1z"/></defs><clipPath id="AB"><use xlink:href="#AA"/></clipPath><path d="M136.7 71.1h48.4v28.1h-48.4z" clip-path="url(#AB)" class="e f g h"/></g><g class="e f g"><path d="M215.6 103.9h-90.7v-1.4" class="j"/><path d="M185 81.2h32.1M185 77.3h35.8"/></g><defs><path id="AC" d="M143.3 52.5h167.4v7.9H143.3z"/></defs><clipPath id="AD"><use xlink:href="#AC"/></clipPath><g class="e f g"><g class="h"><path d="M143.3 52.5h167.4v7.9H143.3z" clip-path="url(#AD)"/><path d="M250.1 71.3l52.3-3.3v-7.7M185.1 73.1l44.8-1m72.5-19.3V20.2H137.9v51.1"/></g><path d="M150.3 60.4c-1.6 5-4.2 8.9-7.1 11m-5.3-51.2c8 0 14.5 11.8 14.5 26.5 0 2.2-.1 4.2-.4 6.2m77.1-.4v7.8m-67-7.8v7.8m64.9-7.8v7.8m-67-7.8v7.8m-33.3 22.6h10"/></g></svg>