<?xml version="1.0" encoding="utf-8"?>
<!-- Generator: Adobe Illustrator 23.0.2, SVG Export Plug-In . SVG Version: 6.00 Build 0)  -->
<svg version="1.1" id="Layer_1" xmlns="http://www.w3.org/2000/svg" xmlns:xlink="http://www.w3.org/1999/xlink" x="0px" y="0px"
	 viewBox="0 0 311 132" style="enable-background:new 0 0 311 132;" xml:space="preserve">
<style type="text/css">
	.st0{fill:none;stroke:#CCE1F5;stroke-miterlimit:10;}
	.st1{fill:none;stroke:#CCE1F5;stroke-linecap:square;stroke-miterlimit:10;}
	.st2{clip-path:url(#SVGID_2_);}
	.st3{clip-path:url(#SVGID_4_);fill:none;stroke:#CCE1F5;stroke-width:2;stroke-miterlimit:10;}
	.st4{clip-path:url(#SVGID_6_);}
	.st5{clip-path:url(#SVGID_8_);enable-background:new    ;}
	.st6{clip-path:url(#SVGID_10_);}
	.st7{clip-path:url(#SVGID_12_);fill:none;stroke:#CCE1F5;stroke-width:2;stroke-miterlimit:10;}
	.st8{clip-path:url(#SVGID_14_);}
	.st9{clip-path:url(#SVGID_16_);enable-background:new    ;}
	.st10{clip-path:url(#SVGID_18_);}
	.st11{clip-path:url(#SVGID_20_);fill:none;stroke:#CCE1F5;stroke-width:2;stroke-miterlimit:10;}
	.st12{clip-path:url(#SVGID_22_);}
	.st13{clip-path:url(#SVGID_24_);enable-background:new    ;}
	.st14{clip-path:url(#SVGID_26_);}
	.st15{clip-path:url(#SVGID_28_);fill:none;stroke:#CCE1F5;stroke-width:2;stroke-miterlimit:10;}
	.st16{clip-path:url(#SVGID_30_);}
	.st17{clip-path:url(#SVGID_32_);fill:none;stroke:#CCE1F5;stroke-width:2;stroke-miterlimit:10;}
	.st18{fill:none;stroke:#CCE1F5;stroke-width:2;stroke-miterlimit:10;}
	.st19{clip-path:url(#SVGID_34_);}
	.st20{clip-path:url(#SVGID_36_);enable-background:new    ;}
	.st21{clip-path:url(#SVGID_38_);}
	.st22{clip-path:url(#SVGID_40_);fill:none;stroke:#CCE1F5;stroke-width:2;stroke-miterlimit:10;}
	.st23{clip-path:url(#SVGID_42_);}
	.st24{clip-path:url(#SVGID_44_);enable-background:new    ;}
	.st25{clip-path:url(#SVGID_46_);}
	.st26{clip-path:url(#SVGID_48_);fill:none;stroke:#CCE1F5;stroke-width:2;stroke-miterlimit:10;}
	.st27{clip-path:url(#SVGID_50_);}
	.st28{clip-path:url(#SVGID_52_);fill:none;stroke:#CCE1F5;stroke-width:2;stroke-miterlimit:10;}
	.st29{clip-path:url(#SVGID_54_);fill:none;stroke:#CCE1F5;stroke-width:2;stroke-miterlimit:10;}
</style>
<g>
	<rect x="230.1" y="8.6" class="st0" width="31" height="11.6"/>
	<rect x="178" y="8.6" class="st0" width="29.4" height="11.6"/>
	<line class="st1" x1="185" y1="82.9" x2="215.6" y2="82.9"/>
	<g>
		<g>
			<defs>
				<rect id="SVGID_1_" x="155.3" y="85.5" width="12" height="9.1"/>
			</defs>
			<clipPath id="SVGID_2_">
				<use xlink:href="#SVGID_1_"  style="overflow:visible;"/>
			</clipPath>
			<g class="st2">
				<g>
					<defs>
						<rect id="SVGID_3_" x="0.1" y="1.4" width="250.4" height="130"/>
					</defs>
					<clipPath id="SVGID_4_">
						<use xlink:href="#SVGID_3_"  style="overflow:visible;"/>
					</clipPath>
					<rect x="155.3" y="85.5" class="st3" width="12" height="9.1"/>
				</g>
			</g>
		</g>
	</g>
	<g>
		<g>
			<defs>
				<path id="SVGID_5_" d="M175.3,73.1h-0.8c-0.6,0-1,0.5-1,1c0,0.6,0.5,1,1,1h0.8c0.6,0,1-0.5,1-1S175.9,73.1,175.3,73.1z"/>
			</defs>
			<clipPath id="SVGID_6_">
				<use xlink:href="#SVGID_5_"  style="overflow:visible;"/>
			</clipPath>
			<g class="st4">
				<g>
					<defs>
						<rect id="SVGID_7_" x="0.1" y="1.4" width="250.4" height="130"/>
					</defs>
					<clipPath id="SVGID_8_">
						<use xlink:href="#SVGID_7_"  style="overflow:visible;"/>
					</clipPath>
					<g class="st5">
						<g>
							<g>
								<defs>
									<rect id="SVGID_9_" x="167" y="67" width="15.5" height="14.3"/>
								</defs>
								<clipPath id="SVGID_10_">
									<use xlink:href="#SVGID_9_"  style="overflow:visible;"/>
								</clipPath>
								<g class="st6">
									<g>
										<defs>
											<rect id="SVGID_11_" x="173" y="72.9" width="3.6" height="2.4"/>
										</defs>
										<clipPath id="SVGID_12_">
											<use xlink:href="#SVGID_11_"  style="overflow:visible;"/>
										</clipPath>
										<path class="st7" d="M175.3,73.1h-0.8c-0.6,0-1,0.5-1,1c0,0.6,0.5,1,1,1h0.8c0.6,0,1-0.5,1-1S175.9,73.1,175.3,73.1z"/>
									</g>
								</g>
							</g>
						</g>
					</g>
				</g>
			</g>
		</g>
	</g>
	<g>
		<g>
			<defs>
				<path id="SVGID_13_" d="M146.8,73.1H146c-0.6,0-1,0.5-1,1c0,0.6,0.5,1,1,1h0.8c0.6,0,1-0.5,1-1S147.4,73.1,146.8,73.1z"/>
			</defs>
			<clipPath id="SVGID_14_">
				<use xlink:href="#SVGID_13_"  style="overflow:visible;"/>
			</clipPath>
			<g class="st8">
				<g>
					<defs>
						<rect id="SVGID_15_" x="0.1" y="1.4" width="250.4" height="130"/>
					</defs>
					<clipPath id="SVGID_16_">
						<use xlink:href="#SVGID_15_"  style="overflow:visible;"/>
					</clipPath>
					<g class="st9">
						<g>
							<g>
								<defs>
									<rect id="SVGID_17_" x="138.4" y="67" width="15.5" height="14.3"/>
								</defs>
								<clipPath id="SVGID_18_">
									<use xlink:href="#SVGID_17_"  style="overflow:visible;"/>
								</clipPath>
								<g class="st10">
									<g>
										<defs>
											<rect id="SVGID_19_" x="144.4" y="72.9" width="3.6" height="2.4"/>
										</defs>
										<clipPath id="SVGID_20_">
											<use xlink:href="#SVGID_19_"  style="overflow:visible;"/>
										</clipPath>
										<path class="st11" d="M146.8,73.1H146c-0.6,0-1,0.5-1,1c0,0.6,0.5,1,1,1h0.8c0.6,0,1-0.5,1-1S147.4,73.1,146.8,73.1z"/>
									</g>
								</g>
							</g>
						</g>
					</g>
				</g>
			</g>
		</g>
	</g>
	<g>
		<g>
			<defs>
				<path id="SVGID_21_" d="M162.3,96.1v-0.8c0-0.6-0.5-1-1-1s-1,0.5-1,1v0.8c0,0.6,0.5,1,1,1S162.3,96.6,162.3,96.1z"/>
			</defs>
			<clipPath id="SVGID_22_">
				<use xlink:href="#SVGID_21_"  style="overflow:visible;"/>
			</clipPath>
			<g class="st12">
				<g>
					<defs>
						<rect id="SVGID_23_" x="0.1" y="1.4" width="250.4" height="130"/>
					</defs>
					<clipPath id="SVGID_24_">
						<use xlink:href="#SVGID_23_"  style="overflow:visible;"/>
					</clipPath>
					<g class="st13">
						<g>
							<g>
								<defs>
									<rect id="SVGID_25_" x="153.9" y="87.8" width="14.9" height="15.5"/>
								</defs>
								<clipPath id="SVGID_26_">
									<use xlink:href="#SVGID_25_"  style="overflow:visible;"/>
								</clipPath>
								<g class="st14">
									<g>
										<defs>
											<rect id="SVGID_27_" x="159.9" y="93.8" width="3" height="3.6"/>
										</defs>
										<clipPath id="SVGID_28_">
											<use xlink:href="#SVGID_27_"  style="overflow:visible;"/>
										</clipPath>
										<path class="st15" d="M162.3,96.1v-0.8c0-0.6-0.5-1-1-1c-0.6,0-1,0.5-1,1v0.8c0,0.6,0.5,1,1,1S162.3,96.6,162.3,96.1z"/>
									</g>
								</g>
							</g>
						</g>
					</g>
				</g>
			</g>
		</g>
	</g>
	<g>
		<g>
			<defs>
				<rect id="SVGID_29_" x="138.7" y="73.1" width="44.2" height="24"/>
			</defs>
			<clipPath id="SVGID_30_">
				<use xlink:href="#SVGID_29_"  style="overflow:visible;"/>
			</clipPath>
			<g class="st16">
				<g>
					<defs>
						<rect id="SVGID_31_" x="0.1" y="1.4" width="250.4" height="130"/>
					</defs>
					<clipPath id="SVGID_32_">
						<use xlink:href="#SVGID_31_"  style="overflow:visible;"/>
					</clipPath>
					<rect x="138.7" y="73.1" class="st17" width="44.2" height="24"/>
				</g>
			</g>
		</g>
	</g>
	<line class="st1" x1="73.6" y1="82.9" x2="73.6" y2="92.9"/>
	<path class="st0" d="M4.2,81.4L4.2,81.4c-1.3,0-2.3-2.6-2.3-5.8s1-5.8,2.3-5.8"/>
	<circle class="st0" cx="8.9" cy="69.8" r="2.1"/>
	<circle class="st18" cx="241" cy="105.6" r="25.4"/>
	<circle class="st0" cx="240.8" cy="105.8" r="14.9"/>
	<circle class="st0" cx="240.8" cy="105.8" r="6.6"/>
	<path class="st0" d="M250.1,106.6c-0.6,0-1-0.5-1-1c0-0.6,0.5-1,1-1c0.6,0,1,0.5,1,1C251.2,106.1,250.7,106.6,250.1,106.6z"/>
	<path class="st0" d="M231.9,106.6c-0.6,0-1-0.5-1-1c0-0.6,0.5-1,1-1c0.6,0,1,0.5,1,1C233,106.1,232.5,106.6,231.9,106.6z"/>
	<path class="st0" d="M247.7,100c-0.6,0-1-0.5-1-1c0-0.6,0.5-1,1-1c0.6,0,1,0.5,1,1S248.2,100,247.7,100z"/>
	<path class="st0" d="M234.4,100c-0.6,0-1-0.5-1-1c0-0.6,0.5-1,1-1s1,0.5,1,1C235.5,99.5,235,100,234.4,100z"/>
	<path class="st0" d="M247.7,113.2c-0.6,0-1-0.5-1-1s0.5-1,1-1c0.6,0,1,0.5,1,1S248.2,113.2,247.7,113.2z"/>
	<path class="st0" d="M234.4,113.2c-0.6,0-1-0.5-1-1s0.5-1,1-1s1,0.5,1,1S235,113.2,234.4,113.2z"/>
	<path class="st0" d="M241,97.5c-0.6,0-1-0.5-1-1s0.5-1,1-1c0.6,0,1,0.5,1,1S241.6,97.5,241,97.5z"/>
	<path class="st0" d="M241,115.7c-0.6,0-1-0.5-1-1s0.5-1,1-1c0.6,0,1,0.5,1,1S241.6,115.7,241,115.7z"/>
	<circle class="st18" cx="34.8" cy="105.6" r="25.4"/>
	<circle class="st0" cx="34.6" cy="105.8" r="14.9"/>
	<circle class="st0" cx="34.6" cy="105.8" r="6.6"/>
	<circle class="st0" cx="43.9" cy="105.6" r="1"/>
	<circle class="st0" cx="25.7" cy="105.6" r="1"/>
	<circle class="st0" cx="41.4" cy="99" r="1"/>
	<circle class="st0" cx="28.1" cy="99" r="1"/>
	<circle class="st0" cx="41.4" cy="112.2" r="1"/>
	<circle class="st0" cx="28.1" cy="112.2" r="1"/>
	<circle class="st0" cx="34.8" cy="96.5" r="1"/>
	<circle class="st0" cx="34.8" cy="114.7" r="1"/>
	<path class="st0" d="M209.4,102.1c0-17.6,14.3-31.8,31.8-31.8S273,84.6,273,102.1l2.2,15.3"/>
	<path class="st18" d="M65.5,99.2c-8.4-14.1-13.1-22-14.3-23.7c-1.7-2.6-3.8-3.6-6.3-3.6s-18.1,0-25.2,0c-7.2,0-12.1,1.2-11,8.2
		c0.8,4.7,1.4,7.8,1.8,9.4l-1.8,2.8l-4.6-9.8V66.6c14.5-2.2,25.7-3.3,33.6-3.3c11.8,0,18-0.2,20.9,3.9C60.5,69.9,66,79.4,75,95.5
		l-6,1v2.7H65.5z"/>
	<path class="st18" d="M74.9,13.1c-1.2,2.1-2,5.1-2.9,8.8c-1.8,7.4-4.7,16.5-5.7,19.4s-1,5.3-13.2,5.3s-47.6,8-50.4,8.8
		c-2.8,0.8-1.4,26-1.4,27.5c0,1,1.4,1.9,4.1,2.7 M67.6,82.9c36.2,0,55.2,0,57,0c2.7,0,2.1-1.2,2.1-2.7s0-62.4,0-66.7
		c0-4.3-2.5-5-7.5-5S86.8,8.8,80.9,9.4"/>
	<line class="st0" x1="52.5" y1="46.6" x2="52.5" y2="63.9"/>
	<line class="st0" x1="52.5" y1="55.2" x2="1.5" y2="58.6"/>
	<path class="st0" d="M74.4,24.8l-6.9,21.8c-0.5,10.6-0.5,17.8,0,21.7c0.5,3.8,1.1,7.6,1.8,11.2c25.8,0,39.8,0,41.8,0
		c3,0,4.9-0.3,4.9-4.9s0-55.8,0-58.1s-1.3-4-3.3-4 M126.7,12.6H81.1"/>
	<path class="st0" d="M75.6,27.3l-2,13c-0.1,0.7,0.4,1.3,1,1.4c0.1,0,0.1,0,0.2,0h35.8c0.7,0,1.2-0.6,1.2-1.2v-24
		c0-0.7-0.6-1.2-1.2-1.2H81.1"/>
	<path class="st0" d="M120.8,8.4V7c-0.3-3.3-0.7-5-1.1-5c-0.6,0-3.1,0-3.7,0c-0.4,0-0.8,1.7-1.3,5v1.4"/>
	<line class="st0" x1="120.8" y1="7" x2="114.7" y2="7"/>
	<path class="st0" d="M79.9,32.4c1.5,0,1.4,1.6,1.4,3.8s-1.2,6.1-2.9,5c-1.7-1.1-2.3-3-2.3-4.3C76,35.6,78.4,32.4,79.9,32.4z"/>
	<path class="st0" d="M80.6,39.8c-0.8,0-1.8-0.6-2.9-1.8"/>
	<path class="st0" d="M78.4,8.4c2.4,0,2.8,1.4,2.8,4.1s0,10.3-0.5,13.3s-1.7,3.5-2.6,3.5s-3.6-2.5-3.6-4.7s0.5-10.4,0.5-12
		C74.9,10.9,76,8.4,78.4,8.4z"/>
	<path class="st0" d="M75.9,13.9c0,18.1,0,27.7,0,28.6s1.9,1.6,5.8,1.9"/>
	<g>
		<g>
			<defs>
				<path id="SVGID_33_" d="M82,46.7L82,46.7c-1.1,0-1.9,0.8-1.9,1.8V49c0,1,0.8,1.8,1.8,1.8H82c1,0,1.8-0.8,1.8-1.8v-0.6
					C83.7,47.5,82.9,46.7,82,46.7z"/>
			</defs>
			<clipPath id="SVGID_34_">
				<use xlink:href="#SVGID_33_"  style="overflow:visible;"/>
			</clipPath>
			<g class="st19">
				<g>
					<defs>
						<rect id="SVGID_35_" x="0.1" y="1.4" width="250.4" height="130"/>
					</defs>
					<clipPath id="SVGID_36_">
						<use xlink:href="#SVGID_35_"  style="overflow:visible;"/>
					</clipPath>
					<g class="st20">
						<g>
							<g>
								<defs>
									<rect id="SVGID_37_" x="74" y="40.2" width="16.1" height="16.7"/>
								</defs>
								<clipPath id="SVGID_38_">
									<use xlink:href="#SVGID_37_"  style="overflow:visible;"/>
								</clipPath>
								<g class="st21">
									<g>
										<defs>
											<rect id="SVGID_39_" x="80" y="46.1" width="4.2" height="4.8"/>
										</defs>
										<clipPath id="SVGID_40_">
											<use xlink:href="#SVGID_39_"  style="overflow:visible;"/>
										</clipPath>
										<path class="st22" d="M82,46.7L82,46.7c-1.1,0-1.9,0.8-1.9,1.8V49c0,1,0.8,1.8,1.8,1.8H82c1,0,1.8-0.8,1.8-1.8v-0.6
											C83.7,47.5,82.9,46.7,82,46.7z"/>
									</g>
								</g>
							</g>
						</g>
					</g>
				</g>
			</g>
		</g>
	</g>
	<ellipse class="st0" cx="111.2" cy="49.8" rx="2.3" ry="1"/>
	<line class="st1" x1="109" y1="49.8" x2="102.9" y2="49.8"/>
	<g>
		<g>
			<defs>
				<path id="SVGID_41_" d="M130.3,85.5h-21.2c-1,0-1.8,0.8-1.8,1.8v13.4c0,1,0.8,1.8,1.8,1.8h21.2c1,0,1.8-0.8,1.8-1.8V87.3
					C132.1,86.3,131.3,85.5,130.3,85.5z"/>
			</defs>
			<clipPath id="SVGID_42_">
				<use xlink:href="#SVGID_41_"  style="overflow:visible;"/>
			</clipPath>
			<g class="st23">
				<g>
					<defs>
						<rect id="SVGID_43_" x="0.1" y="1.4" width="250.4" height="130"/>
					</defs>
					<clipPath id="SVGID_44_">
						<use xlink:href="#SVGID_43_"  style="overflow:visible;"/>
					</clipPath>
					<g class="st24">
						<g>
							<g>
								<defs>
									<rect id="SVGID_45_" x="100.8" y="79.5" width="37.6" height="29.2"/>
								</defs>
								<clipPath id="SVGID_46_">
									<use xlink:href="#SVGID_45_"  style="overflow:visible;"/>
								</clipPath>
								<g class="st25">
									<g>
										<defs>
											<rect id="SVGID_47_" x="106.8" y="85.5" width="25.6" height="17.3"/>
										</defs>
										<clipPath id="SVGID_48_">
											<use xlink:href="#SVGID_47_"  style="overflow:visible;"/>
										</clipPath>
										<path class="st26" d="M130.3,85.5h-21.2c-1,0-1.8,0.8-1.8,1.8v13.4c0,1,0.8,1.8,1.8,1.8h21.2c1,0,1.8-0.8,1.8-1.8V87.3
											C132.1,86.3,131.3,85.5,130.3,85.5z"/>
									</g>
								</g>
							</g>
						</g>
					</g>
				</g>
			</g>
		</g>
	</g>
	<line class="st0" x1="132.1" y1="97.5" x2="107.3" y2="97.5"/>
	<line class="st0" x1="132.1" y1="99.2" x2="107.3" y2="99.2"/>
	<line class="st0" x1="125.7" y1="97.5" x2="125.7" y2="85.6"/>
	<line class="st0" x1="113.5" y1="97.5" x2="113.5" y2="85.6"/>
	<path class="st0" d="M105.9,82.9v21.6c-10.8,0-18.9,0-24.3,0c-5.4,0-9.6-1.8-12.8-5.4"/>
	<line class="st0" x1="105.9" y1="85.6" x2="73.6" y2="85.6"/>
	<line class="st0" x1="105.9" y1="90.9" x2="73.6" y2="90.9"/>
	<line class="st0" x1="105.9" y1="96.3" x2="70.8" y2="96.3"/>
	<g>
		<g>
			<defs>
				<rect id="SVGID_49_" x="136.7" y="71.1" width="48.4" height="28.1"/>
			</defs>
			<clipPath id="SVGID_50_">
				<use xlink:href="#SVGID_49_"  style="overflow:visible;"/>
			</clipPath>
			<g class="st27">
				<g>
					<defs>
						<rect id="SVGID_51_" x="0.1" y="1.4" width="250.4" height="130"/>
					</defs>
					<clipPath id="SVGID_52_">
						<use xlink:href="#SVGID_51_"  style="overflow:visible;"/>
					</clipPath>
					<rect x="136.7" y="71.1" class="st28" width="48.4" height="28.1"/>
				</g>
			</g>
		</g>
	</g>
	<polyline class="st1" points="215.6,103.9 124.9,103.9 124.9,102.5 	"/>
	<line class="st0" x1="185" y1="81.2" x2="217.1" y2="81.2"/>
	<line class="st0" x1="185" y1="77.3" x2="220.8" y2="77.3"/>
	<g>
		<g>
			<defs>
				<rect id="SVGID_53_" x="143.3" y="52.5" width="167.4" height="7.9"/>
			</defs>
			<clipPath id="SVGID_54_">
				<use xlink:href="#SVGID_53_"  style="overflow:visible;"/>
			</clipPath>
			<rect x="143.3" y="52.5" class="st29" width="167.4" height="7.9"/>
		</g>
	</g>
	<path class="st18" d="M250.1,71.3l52.3-3.3v-7.7 M185.1,73.1l44.8-1 M302.4,52.8V20.2H137.9v51.1"/>
	<path class="st0" d="M150.3,60.4c-1.6,5-4.2,8.9-7.1,11 M137.9,20.2c8,0,14.5,11.8,14.5,26.5c0,2.2-0.1,4.2-0.4,6.2"/>
	<line class="st0" x1="229.1" y1="52.5" x2="229.1" y2="60.3"/>
	<line class="st0" x1="162.1" y1="52.5" x2="162.1" y2="60.3"/>
	<line class="st0" x1="227" y1="52.5" x2="227" y2="60.3"/>
	<line class="st0" x1="160" y1="52.5" x2="160" y2="60.3"/>
	<line class="st0" x1="126.7" y1="82.9" x2="136.7" y2="82.9"/>
</g>
</svg>
