<?xml version="1.0" encoding="utf-8"?>
<!-- Generator: Adobe Illustrator 23.0.2, SVG Export Plug-In . SVG Version: 6.00 Build 0)  -->
<svg version="1.1" id="Layer_1" xmlns="http://www.w3.org/2000/svg" xmlns:xlink="http://www.w3.org/1999/xlink" x="0px" y="0px"
	 viewBox="0 0 311 132" style="enable-background:new 0 0 311 132;" xml:space="preserve">
<style type="text/css">
	.st0{fill:none;stroke:#CCE1F5;stroke-miterlimit:10;}
	.st1{fill:none;stroke:#CCE1F5;stroke-width:2;stroke-miterlimit:10;}
	.st2{clip-path:url(#SVGID_2_);}
	.st3{clip-path:url(#SVGID_4_);enable-background:new    ;}
	.st4{clip-path:url(#SVGID_6_);}
	.st5{clip-path:url(#SVGID_8_);fill:none;stroke:#CCE1F5;stroke-width:4;stroke-miterlimit:10;}
	.st6{fill:none;stroke:#CCE1F5;stroke-linecap:square;stroke-miterlimit:10;}
	.st7{clip-path:url(#SVGID_10_);}
	.st8{clip-path:url(#SVGID_12_);enable-background:new    ;}
	.st9{clip-path:url(#SVGID_14_);}
	.st10{clip-path:url(#SVGID_16_);fill:none;stroke:#CCE1F5;stroke-width:2;stroke-miterlimit:10;}
	.st11{fill:none;stroke:#CCE1F5;stroke-width:2;stroke-linecap:square;stroke-miterlimit:10;}
	.st12{clip-path:url(#SVGID_18_);}
	.st13{clip-path:url(#SVGID_20_);enable-background:new    ;}
	.st14{clip-path:url(#SVGID_22_);}
	.st15{clip-path:url(#SVGID_24_);fill:none;stroke:#CCE1F5;stroke-width:2;stroke-miterlimit:10;}
	.st16{clip-path:url(#SVGID_26_);}
	.st17{clip-path:url(#SVGID_28_);enable-background:new    ;}
	.st18{clip-path:url(#SVGID_30_);}
	.st19{clip-path:url(#SVGID_32_);fill:none;stroke:#CCE1F5;stroke-width:2;stroke-miterlimit:10;}
	.st20{clip-path:url(#SVGID_34_);}
	.st21{clip-path:url(#SVGID_36_);enable-background:new    ;}
	.st22{clip-path:url(#SVGID_38_);}
	.st23{clip-path:url(#SVGID_40_);fill:none;stroke:#CCE1F5;stroke-width:2;stroke-miterlimit:10;}
	.st24{clip-path:url(#SVGID_42_);}
	.st25{clip-path:url(#SVGID_44_);enable-background:new    ;}
	.st26{clip-path:url(#SVGID_46_);}
	.st27{clip-path:url(#SVGID_48_);fill:none;stroke:#CCE1F5;stroke-width:2;stroke-miterlimit:10;}
	.st28{clip-path:url(#SVGID_50_);}
	.st29{clip-path:url(#SVGID_52_);enable-background:new    ;}
	.st30{clip-path:url(#SVGID_54_);}
	.st31{clip-path:url(#SVGID_56_);fill:none;stroke:#CCE1F5;stroke-width:2;stroke-miterlimit:10;}
	.st32{fill:none;stroke:#CCE1F5;stroke-miterlimit:10;stroke-dasharray:4,4;}
</style>
<g>
	<path class="st0" d="M233,107.2c0-12.1,9.8-22,21.9-22c12.1,0,21.9,9.8,21.9,22l2.5,12.3"/>
	<path class="st0" d="M186.7,108.4c0-12.2,9.9-22.2,22.2-22.2c12.2,0,22.2,9.9,22.2,22.2"/>
	<path class="st0" d="M63.2,85.7c12.8,0,23.2,10.4,23.2,23.2"/>
	<g>
		<g>
			<circle class="st1" cx="253.9" cy="111.9" r="18.6"/>
			<circle class="st0" cx="253.9" cy="111.9" r="11.1"/>
			<circle class="st0" cx="253.9" cy="111.9" r="4.5"/>
		</g>
		<circle class="st0" cx="254" cy="104.1" r="1"/>
		<circle class="st0" cx="259.8" cy="107" r="1"/>
		<circle class="st0" cx="261.5" cy="113.3" r="1"/>
		<circle class="st0" cx="257.6" cy="118.7" r="1"/>
		<circle class="st0" cx="250.6" cy="119" r="1"/>
		<circle class="st0" cx="246.2" cy="113.3" r="1"/>
		<circle class="st0" cx="247.8" cy="107" r="1"/>
	</g>
	<g>
		<g>
			<circle class="st1" cx="208.4" cy="111.9" r="18.6"/>
			<circle class="st0" cx="208.4" cy="111.9" r="11.1"/>
			<circle class="st0" cx="208.4" cy="111.9" r="4.5"/>
		</g>
		<circle class="st0" cx="208.5" cy="104.1" r="1"/>
		<circle class="st0" cx="214.3" cy="107" r="1"/>
		<circle class="st0" cx="216" cy="113.3" r="1"/>
		<circle class="st0" cx="212.1" cy="118.7" r="1"/>
		<circle class="st0" cx="205.1" cy="119" r="1"/>
		<circle class="st0" cx="200.8" cy="113.3" r="1"/>
		<circle class="st0" cx="202.4" cy="107" r="1"/>
	</g>
	<g>
		<g>
			<circle class="st1" cx="63.2" cy="111.9" r="18.6"/>
			<circle class="st0" cx="63.2" cy="111.9" r="11.1"/>
			<circle class="st0" cx="63.2" cy="111.9" r="4.5"/>
		</g>
		<circle class="st0" cx="63.3" cy="104.1" r="1"/>
		<circle class="st0" cx="69" cy="107" r="1"/>
		<circle class="st0" cx="70.8" cy="113.3" r="1"/>
		<circle class="st0" cx="66.9" cy="118.7" r="1"/>
		<circle class="st0" cx="59.9" cy="119" r="1"/>
		<circle class="st0" cx="55.5" cy="113.3" r="1"/>
		<circle class="st0" cx="57.1" cy="107" r="1"/>
	</g>
	<g>
		<g>
			<defs>
				<path id="SVGID_1_" d="M167.5,108.4h-29.2c-3.3,0-6,2.7-6,6s2.7,6,6,6h29.2c3.3,0,6-2.7,6-6S170.9,108.4,167.5,108.4z"/>
			</defs>
			<clipPath id="SVGID_2_">
				<use xlink:href="#SVGID_1_"  style="overflow:visible;"/>
			</clipPath>
			<g class="st2">
				<g>
					<defs>
						<rect id="SVGID_3_" x="7.3" y="-0.4" width="298.3" height="132"/>
					</defs>
					<clipPath id="SVGID_4_">
						<use xlink:href="#SVGID_3_"  style="overflow:visible;"/>
					</clipPath>
					<g class="st3">
						<g>
							<g>
								<defs>
									<rect id="SVGID_5_" x="112.1" y="88.3" width="81.6" height="52.4"/>
								</defs>
								<clipPath id="SVGID_6_">
									<use xlink:href="#SVGID_5_"  style="overflow:visible;"/>
								</clipPath>
								<g class="st4">
									<g>
										<defs>
											<rect id="SVGID_7_" x="132.3" y="108.4" width="41.3" height="12.1"/>
										</defs>
										<clipPath id="SVGID_8_">
											<use xlink:href="#SVGID_7_"  style="overflow:visible;"/>
										</clipPath>
										<path class="st5" d="M167.5,108.4h-29.2c-3.3,0-6,2.7-6,6s2.7,6,6,6h29.2c3.3,0,6-2.7,6-6
											C173.6,111.1,170.9,108.4,167.5,108.4z"/>
									</g>
								</g>
							</g>
						</g>
					</g>
				</g>
			</g>
		</g>
	</g>
	<path class="st1" d="M138.9,89.3c-5.9,0-13.5,0-20.2,0 M197.2,89.3c-6.5,0-17.7,0-31.2,0 M242.4,89.3c-6.3,0-14.2,0-22.1,0
		 M119,4.6h129.3c17.2,0,31.1,19,31.1,42.3c0,17.6-7.9,32.6-19.1,39"/>
	<path class="st1" d="M119.2,89.3L119.2,89.3C101.9,89.3,88,70.3,88,47s14-42.3,31.2-42.3"/>
	<polygon class="st0" points="304.6,58 304.6,89.3 275.4,89.3 275.4,81.7 282.4,58 	"/>
	<polyline class="st0" points="296.9,89.4 296.9,92.9 300.6,92.9 300.6,97.2 299.3,98.5 299.3,102.5 295.7,102.5 295.7,106.4 
		297.6,106.4 297.6,110.4 294.1,110.4 294.1,102.5 276.4,102.5 	"/>
	<line class="st0" x1="276.1" y1="89.3" x2="267.5" y2="89.3"/>
	<path class="st0" d="M182.6,107.4c-7-3.4-11.5-7.4-13.4-12.1c-2.3,2.3-4.6,4.3-6.7,6L182.6,107.4z"/>
	<path class="st0" d="M247.1,86.8c0-2.2,0-5.5,0-10c0-1.5-1.1-2.7-2.5-2.7h-4.1c-1.4,0-2.5,1.2-2.5,2.7v12.4"/>
	<path class="st0" d="M190.7,89.3V76.8c0-1.5-1.1-2.7-2.5-2.7h-4.1c-1.4,0-2.5,1.2-2.5,2.7v12.4"/>
	<path class="st0" d="M136.3,89.3V76.8c0-1.5-1.1-2.7-2.5-2.7h-4.1c-1.4,0-2.5,1.2-2.5,2.7v12.4"/>
	<rect x="196.8" y="0.6" class="st0" width="7.1" height="4"/>
	<rect x="215.9" y="2.6" class="st0" width="7.1" height="2"/>
	<rect x="185.7" y="2.6" class="st0" width="7.1" height="2"/>
	<line class="st6" x1="244.3" y1="77.3" x2="244.3" y2="87.9"/>
	<line class="st6" x1="241.1" y1="77.3" x2="241.1" y2="89.3"/>
	<line class="st6" x1="187.7" y1="77.3" x2="187.7" y2="89.3"/>
	<line class="st6" x1="133.3" y1="77.3" x2="133.3" y2="89.3"/>
	<line class="st6" x1="184.4" y1="77.3" x2="184.4" y2="89.3"/>
	<line class="st6" x1="130.1" y1="77.3" x2="130.1" y2="89.3"/>
	<g>
		<g>
			<defs>
				<path id="SVGID_9_" d="M162,85.2h-19.1c-2.5,0-4.5,2-4.5,4.5s2,4.5,4.5,4.5H162c2.5,0,4.5-2,4.5-4.5S164.5,85.2,162,85.2z"/>
			</defs>
			<clipPath id="SVGID_10_">
				<use xlink:href="#SVGID_9_"  style="overflow:visible;"/>
			</clipPath>
			<g class="st7">
				<g>
					<defs>
						<rect id="SVGID_11_" x="7.3" y="-0.4" width="298.3" height="132"/>
					</defs>
					<clipPath id="SVGID_12_">
						<use xlink:href="#SVGID_11_"  style="overflow:visible;"/>
					</clipPath>
					<g class="st8">
						<g>
							<g>
								<defs>
									<rect id="SVGID_13_" x="128.2" y="75.2" width="48.4" height="29.2"/>
								</defs>
								<clipPath id="SVGID_14_">
									<use xlink:href="#SVGID_13_"  style="overflow:visible;"/>
								</clipPath>
								<g class="st9">
									<g>
										<defs>
											<rect id="SVGID_15_" x="138.3" y="85.2" width="28.2" height="9.1"/>
										</defs>
										<clipPath id="SVGID_16_">
											<use xlink:href="#SVGID_15_"  style="overflow:visible;"/>
										</clipPath>
										<path class="st10" d="M162,85.2h-19.1c-2.5,0-4.5,2-4.5,4.5s2,4.5,4.5,4.5H162c2.5,0,4.5-2,4.5-4.5S164.5,85.2,162,85.2z"
											/>
									</g>
								</g>
							</g>
						</g>
					</g>
				</g>
			</g>
		</g>
	</g>
	<polyline class="st0" points="164.1,93.4 158.1,102.4 146.8,102.4 140.2,93.4 	"/>
	<line class="st0" x1="158" y1="102.4" x2="158" y2="108.4"/>
	<line class="st0" x1="146.9" y1="102.4" x2="146.9" y2="108.4"/>
	<line class="st6" x1="158.1" y1="103.9" x2="170.4" y2="103.9"/>
	<line class="st6" x1="109.1" y1="103.9" x2="146.9" y2="103.9"/>
	<polyline class="st6" points="101.9,86.9 106.1,89.3 120.5,89.3 	"/>
	<line class="st11" x1="109.3" y1="116" x2="133" y2="116"/>
	<line class="st6" x1="176.6" y1="103.9" x2="186.8" y2="103.9"/>
	<polyline class="st0" points="144.4,99.4 132.3,99.4 132.3,93.3 140.6,93.3 	"/>
	<line class="st0" x1="191.4" y1="94.8" x2="163.3" y2="94.8"/>
	<polyline class="st0" points="132.3,95.3 97.5,95.3 84.5,98.5 	"/>
	<line class="st6" x1="119.7" y1="116" x2="119.7" y2="104.4"/>
	<line class="st6" x1="114.6" y1="116" x2="114.6" y2="104.4"/>
	<path class="st0" d="M107.6,97.3h-9.1c-0.8,0-1.5,0.7-1.5,1.5s0.7,1.5,1.5,1.5h9.1c0.8,0,1.5-0.7,1.5-1.5S108.4,97.3,107.6,97.3z"
		/>
	<path class="st0" d="M107.6,105.4h-9.1c-0.8,0-1.5,0.7-1.5,1.5s0.7,1.5,1.5,1.5h9.1c0.8,0,1.5-0.7,1.5-1.5S108.4,105.4,107.6,105.4
		z"/>
	<path class="st0" d="M107.6,112.5h-9.1c-0.8,0-1.5,0.7-1.5,1.5s0.7,1.5,1.5,1.5h9.1c0.8,0,1.5-0.7,1.5-1.5S108.4,112.5,107.6,112.5
		z"/>
	<path class="st0" d="M107.6,101.4h-9.1c-0.8,0-1.5,0.7-1.5,1.5s0.7,1.5,1.5,1.5h9.1c0.8,0,1.5-0.7,1.5-1.5
		C109.1,102,108.4,101.4,107.6,101.4z"/>
	<path class="st0" d="M107.6,108.4h-9.1c-0.8,0-1.5,0.7-1.5,1.5s0.7,1.5,1.5,1.5h9.1c0.8,0,1.5-0.7,1.5-1.5S108.4,108.4,107.6,108.4
		z"/>
	<path class="st0" d="M107.6,115.5h-9.1c-0.8,0-1.5,0.7-1.5,1.5s0.7,1.5,1.5,1.5h9.1c0.8,0,1.5-0.7,1.5-1.5S108.4,115.5,107.6,115.5
		z"/>
	<g>
		<circle class="st0" cx="95.9" cy="86.1" r="6.2"/>
		<circle class="st0" cx="95.9" cy="86.1" r="2.6"/>
	</g>
	<line class="st0" x1="97" y1="94.3" x2="96" y2="92.3"/>
	<path class="st1" d="M93,80l-11.2-6.5l-1.3-49.1h-5.7L75.4,77c4.3,1.6,6.4,3.1,6.4,4.6s0,2.7,0,3.8c-7.5,0-14,0-19.3,0
		c-7.9,0-20.2,7-21.2,21.2c-0.5,7.3-0.3,11.4-0.4,11.4l-27.7-1.7v-6.6h-0.5v-3.3h4v-7.6h-4.4l0.4-2.8l0.6-1.4h1.1v-1.3h-1.1
		l-0.9-2.9V77l0.9-1.4l1.1-18.2l13.1-31.1l7.7-3.2c19.2-0.2,29.9-0.3,32.1-0.3c3.3,0,4.3,1,5.2,7.4c0.6,4.2,1.5,14.1,2.7,29.5"/>
	<path class="st0" d="M75.8,77.2c-10.8,0-31.5-0.7-36.3,22.2"/>
	<line class="st0" x1="41.5" y1="93.1" x2="14.2" y2="93.1"/>
	<line class="st0" x1="40.7" y1="94.9" x2="14.7" y2="94.9"/>
	<path class="st0" d="M22.5,117.5l-0.4-20.7l-0.7-1.2v-3.1l-1-16.3V56.8l9.1-23.9c20.1,0,29.6,0,31.2,0c2.4,0,3.9,1.3,4.6,6.4
		c0.4,3.4,0.7,16,1.2,38.2"/>
	<ellipse class="st0" cx="62.2" cy="68.1" rx="1.5" ry="1"/>
	<line class="st6" x1="61.7" y1="68" x2="56.8" y2="68"/>
	<line class="st0" x1="72.8" y1="30.3" x2="25.4" y2="30.3"/>
	<path class="st0" d="M27.9,30.4c-5.1,14.6-8.4,22.9-8.9,24c-0.4,1-2,1.6-4.6,1.6"/>
	<line class="st0" x1="25.4" y1="30.3" x2="7.3" y2="30.3"/>
	<path class="st0" d="M15,30.8h-1.3c-1.2,0-2.1,0.9-2.1,2.1c0,0.3,0.1,0.6,0.2,0.9l0.4,0.7c0.7,1.4,2.1,2.3,3.6,2.3H17
		c1.2,0,2.1-0.9,2.1-2.1c0-0.3-0.1-0.6-0.2-0.9l-0.4-0.7C17.9,31.7,16.5,30.8,15,30.8z"/>
	<g>
		<g>
			<defs>
				<path id="SVGID_17_" d="M32.5,35.9c-1.7,0-3,1.4-3,3v6c0,1.7,1.4,3,3,3c1.6,0,3-1.4,3-3v-6C35.5,37.2,34.2,35.9,32.5,35.9z"/>
			</defs>
			<clipPath id="SVGID_18_">
				<use xlink:href="#SVGID_17_"  style="overflow:visible;"/>
			</clipPath>
			<g class="st12">
				<g>
					<defs>
						<rect id="SVGID_19_" x="7.3" y="-0.4" width="298.3" height="132"/>
					</defs>
					<clipPath id="SVGID_20_">
						<use xlink:href="#SVGID_19_"  style="overflow:visible;"/>
					</clipPath>
					<g class="st13">
						<g>
							<g>
								<defs>
									<rect id="SVGID_21_" x="19.4" y="25.8" width="26.2" height="32.2"/>
								</defs>
								<clipPath id="SVGID_22_">
									<use xlink:href="#SVGID_21_"  style="overflow:visible;"/>
								</clipPath>
								<g class="st14">
									<g>
										<defs>
											<rect id="SVGID_23_" x="29.5" y="35.9" width="6" height="12.1"/>
										</defs>
										<clipPath id="SVGID_24_">
											<use xlink:href="#SVGID_23_"  style="overflow:visible;"/>
										</clipPath>
										<path class="st15" d="M32.5,35.9c-1.7,0-3,1.4-3,3v6c0,1.7,1.4,3,3,3c1.7,0,3-1.4,3-3v-6C35.5,37.2,34.2,35.9,32.5,35.9z"
											/>
									</g>
								</g>
							</g>
						</g>
					</g>
				</g>
			</g>
		</g>
	</g>
	<g>
		<g>
			<defs>
				<path id="SVGID_25_" d="M32.5,49c-1.7,0-3,1.4-3,3v2c0,1.7,1.4,3,3,3c1.6,0,3-1.4,3-3v-2C35.5,50.3,34.2,49,32.5,49z"/>
			</defs>
			<clipPath id="SVGID_26_">
				<use xlink:href="#SVGID_25_"  style="overflow:visible;"/>
			</clipPath>
			<g class="st16">
				<g>
					<defs>
						<rect id="SVGID_27_" x="7.3" y="-0.4" width="298.3" height="132"/>
					</defs>
					<clipPath id="SVGID_28_">
						<use xlink:href="#SVGID_27_"  style="overflow:visible;"/>
					</clipPath>
					<g class="st17">
						<g>
							<g>
								<defs>
									<rect id="SVGID_29_" x="19.4" y="38.9" width="26.2" height="28.2"/>
								</defs>
								<clipPath id="SVGID_30_">
									<use xlink:href="#SVGID_29_"  style="overflow:visible;"/>
								</clipPath>
								<g class="st18">
									<g>
										<defs>
											<rect id="SVGID_31_" x="29.5" y="49" width="6" height="8.1"/>
										</defs>
										<clipPath id="SVGID_32_">
											<use xlink:href="#SVGID_31_"  style="overflow:visible;"/>
										</clipPath>
										<path class="st19" d="M32.5,49c-1.7,0-3,1.4-3,3v2c0,1.7,1.4,3,3,3c1.7,0,3-1.4,3-3v-2C35.5,50.3,34.2,49,32.5,49z"/>
									</g>
								</g>
							</g>
						</g>
					</g>
				</g>
			</g>
		</g>
	</g>
	<path class="st6" d="M32.5,36.9v15.3c0,5.9-1.7,9.2-5,9.9"/>
	<path class="st0" d="M37.5,62.1h-10c-0.6,0-1,0.5-1,1c0,0.6,0.5,1,1,1h10.1c0.6,0,1-0.5,1-1C38.5,62.5,38.1,62.1,37.5,62.1z"/>
	<path class="st1" d="M89.9,84.7c-5.1-3-8.2-4.8-9.3-5.5c-1.7-1-5.4-4.7-5.4-12.1"/>
	<path class="st0" d="M59.7,34.9H43.6c-1.1,0-2,0.9-2,2V52c0,1.1,0.9,2,2,2h16.1c1.1,0,2-0.9,2-2V36.9
		C61.7,35.8,60.8,34.9,59.7,34.9z"/>
	<path class="st0" d="M35.5,54h2.4c0.4,0,0.6-0.3,0.6-0.6V35.5c0-0.4-0.3-0.6-0.6-0.6h-6.4c-0.3,0-0.6,0.2-0.6,0.5l-0.6,2
		 M29.7,40.2l-3.2,13c-0.1,0.3,0.1,0.7,0.5,0.8c0.1,0,0.1,0,0.2,0h2.9"/>
	<path class="st0" d="M12.6,99.4c-1.9,2.6-1.6,5.3,0.8,8.1"/>
	<g>
		<g>
			<defs>
				<path id="SVGID_33_" d="M73.8,82.2h-3c-0.6,0-1,0.5-1,1s0.5,1,1,1h3c0.6,0,1-0.5,1-1S74.4,82.2,73.8,82.2z"/>
			</defs>
			<clipPath id="SVGID_34_">
				<use xlink:href="#SVGID_33_"  style="overflow:visible;"/>
			</clipPath>
			<g class="st20">
				<g>
					<defs>
						<rect id="SVGID_35_" x="7.3" y="-0.4" width="298.3" height="132"/>
					</defs>
					<clipPath id="SVGID_36_">
						<use xlink:href="#SVGID_35_"  style="overflow:visible;"/>
					</clipPath>
					<g class="st21">
						<g>
							<g>
								<defs>
									<rect id="SVGID_37_" x="59.7" y="72.1" width="25.2" height="22.2"/>
								</defs>
								<clipPath id="SVGID_38_">
									<use xlink:href="#SVGID_37_"  style="overflow:visible;"/>
								</clipPath>
								<g class="st22">
									<g>
										<defs>
											<rect id="SVGID_39_" x="69.8" y="82.2" width="5" height="2"/>
										</defs>
										<clipPath id="SVGID_40_">
											<use xlink:href="#SVGID_39_"  style="overflow:visible;"/>
										</clipPath>
										<path class="st23" d="M73.8,82.2h-3c-0.6,0-1,0.5-1,1c0,0.6,0.5,1,1,1h3c0.6,0,1-0.5,1-1S74.4,82.2,73.8,82.2z"/>
									</g>
								</g>
							</g>
						</g>
					</g>
				</g>
			</g>
		</g>
	</g>
	<g>
		<g>
			<defs>
				<path id="SVGID_41_" d="M87.9,94.3h-3c-0.6,0-1,0.5-1,1s0.5,1,1,1h3c0.6,0,1-0.5,1-1S88.5,94.3,87.9,94.3z"/>
			</defs>
			<clipPath id="SVGID_42_">
				<use xlink:href="#SVGID_41_"  style="overflow:visible;"/>
			</clipPath>
			<g class="st24">
				<g>
					<defs>
						<rect id="SVGID_43_" x="7.3" y="-0.4" width="298.3" height="132"/>
					</defs>
					<clipPath id="SVGID_44_">
						<use xlink:href="#SVGID_43_"  style="overflow:visible;"/>
					</clipPath>
					<g class="st25">
						<g>
							<g>
								<defs>
									<rect id="SVGID_45_" x="73.8" y="84.2" width="25.2" height="22.2"/>
								</defs>
								<clipPath id="SVGID_46_">
									<use xlink:href="#SVGID_45_"  style="overflow:visible;"/>
								</clipPath>
								<g class="st26">
									<g>
										<defs>
											<rect id="SVGID_47_" x="83.9" y="94.3" width="5" height="2"/>
										</defs>
										<clipPath id="SVGID_48_">
											<use xlink:href="#SVGID_47_"  style="overflow:visible;"/>
										</clipPath>
										<path class="st27" d="M87.9,94.3h-3c-0.6,0-1,0.5-1,1s0.5,1,1,1h3c0.6,0,1-0.5,1-1S88.5,94.3,87.9,94.3z"/>
									</g>
								</g>
							</g>
						</g>
					</g>
				</g>
			</g>
		</g>
	</g>
	<g>
		<g>
			<defs>
				<path id="SVGID_49_" d="M93.5,105.9v-3c0-0.6-0.5-1-1-1c-0.6,0-1,0.5-1,1v3c0,0.6,0.5,1,1,1S93.5,106.5,93.5,105.9z"/>
			</defs>
			<clipPath id="SVGID_50_">
				<use xlink:href="#SVGID_49_"  style="overflow:visible;"/>
			</clipPath>
			<g class="st28">
				<g>
					<defs>
						<rect id="SVGID_51_" x="7.3" y="-0.4" width="298.3" height="132"/>
					</defs>
					<clipPath id="SVGID_52_">
						<use xlink:href="#SVGID_51_"  style="overflow:visible;"/>
					</clipPath>
					<g class="st29">
						<g>
							<g>
								<defs>
									<rect id="SVGID_53_" x="80.9" y="91.3" width="23.2" height="26.2"/>
								</defs>
								<clipPath id="SVGID_54_">
									<use xlink:href="#SVGID_53_"  style="overflow:visible;"/>
								</clipPath>
								<g class="st30">
									<g>
										<defs>
											<rect id="SVGID_55_" x="90.9" y="101.4" width="3" height="6"/>
										</defs>
										<clipPath id="SVGID_56_">
											<use xlink:href="#SVGID_55_"  style="overflow:visible;"/>
										</clipPath>
										<path class="st31" d="M93.5,105.9v-3c0-0.6-0.5-1-1-1c-0.6,0-1,0.5-1,1v3c0,0.6,0.5,1,1,1S93.5,106.5,93.5,105.9z"/>
									</g>
								</g>
							</g>
						</g>
					</g>
				</g>
			</g>
		</g>
	</g>
	<line class="st11" x1="96.3" y1="116" x2="81.9" y2="116"/>
	<line class="st11" x1="189.5" y1="116" x2="173.7" y2="116"/>
	<line class="st1" x1="235.1" y1="116" x2="226.5" y2="116"/>
	<line class="st6" x1="272" y1="93" x2="298.1" y2="93"/>
	<path class="st0" d="M280.4,89.3c0-3.6,0-5.8,0-6.6c0-1.2,0.3-2.9,1.1-5.2c0.5-1.5,2.5-8,5.9-19.4"/>
	<line class="st32" x1="172.1" y1="111.9" x2="133.8" y2="111.9"/>
	<line class="st32" x1="173" y1="116" x2="132.5" y2="116"/>
</g>
</svg>
