<svg xmlns="http://www.w3.org/2000/svg" xmlns:xlink="http://www.w3.org/1999/xlink" viewBox="0 0 311 132"><style><![CDATA[.h{stroke-miterlimit:10}.i{stroke-width:2}.j{fill:none}.k{stroke:#cce1f5}.l{enable-background:new}.m{stroke-linecap:square}]]></style><g class="j k"><path d="M233 107.2c0-12.1 9.8-22 21.9-22s21.9 9.8 21.9 22l2.5 12.3m-92.6-11.1c0-12.2 9.9-22.2 22.2-22.2 12.2 0 22.2 9.9 22.2 22.2M63.2 85.7c12.8 0 23.2 10.4 23.2 23.2" class="h"/><circle cx="253.9" cy="111.9" r="18.6" class="i"/><circle cx="253.9" cy="111.9" r="11.1"/><circle cx="253.9" cy="111.9" r="4.5"/><circle cx="254" cy="104.1" r="1"/><circle cx="259.8" cy="107" r="1"/><circle cx="261.5" cy="113.3" r="1"/><circle cx="257.6" cy="118.7" r="1"/><circle cx="250.6" cy="119" r="1"/><circle cx="246.2" cy="113.3" r="1"/><circle cx="247.8" cy="107" r="1"/><circle cx="208.4" cy="111.9" r="18.6" class="i"/><circle cx="208.4" cy="111.9" r="11.1"/><circle cx="208.4" cy="111.9" r="4.5"/><circle cx="208.5" cy="104.1" r="1"/><circle cx="214.3" cy="107" r="1"/><circle cx="216" cy="113.3" r="1"/><circle cx="212.1" cy="118.7" r="1"/><circle cx="205.1" cy="119" r="1"/><circle cx="200.8" cy="113.3" r="1"/><circle cx="202.4" cy="107" r="1"/><circle cx="63.2" cy="111.9" r="18.6" class="i"/><circle cx="63.2" cy="111.9" r="11.1"/><circle cx="63.2" cy="111.9" r="4.5"/><circle cx="63.3" cy="104.1" r="1"/><circle cx="69" cy="107" r="1"/><circle cx="70.8" cy="113.3" r="1"/><circle cx="66.9" cy="118.7" r="1"/><circle cx="59.9" cy="119" r="1"/><circle cx="55.5" cy="113.3" r="1"/><circle cx="57.1" cy="107" r="1"/></g><defs><path id="A" d="M167.5,108.4h-29.2c-3.3,0-6,2.7-6,6s2.7,6,6,6h29.2c3.3,0,6-2.7,6-6S170.9,108.4,167.5,108.4z"/><path id="B" d="M190.7,89.3V76.8c0-1.5-1.1-2.7-2.5-2.7h-4.1c-1.4,0-2.5,1.2-2.5,2.7v12.4"/></defs><clipPath id="C"><use xlink:href="#A"/></clipPath><g clip-path="url(#C)"><defs><path id="D" d="M7.3-.4h298.3v132H7.3z"/></defs><clipPath id="E"><use xlink:href="#D"/></clipPath><g clip-path="url(#E)" class="l"><defs><path id="F" d="M112.1 88.3h81.6v52.4h-81.6z"/></defs><clipPath id="G"><use xlink:href="#F"/></clipPath><g clip-path="url(#G)"><defs><path id="H" d="M132.3 108.4h41.3v12.1h-41.3z"/></defs><clipPath id="I"><use xlink:href="#H"/></clipPath><path d="M167.5 108.4h-29.2a6.02 6.02 0 0 0-6 6 6.02 6.02 0 0 0 6 6h29.2a6.02 6.02 0 0 0 6-6c.1-3.3-2.6-6-6-6z" clip-path="url(#I)" stroke-width="4" class="h j k"/></g></g></g><g class="h j k"><path d="M138.9 89.3h-20.2m78.5 0H166m76.4 0h-22.1M119 4.6h129.3c17.2 0 31.1 19 31.1 42.3 0 17.6-7.9 32.6-19.1 39m-141.1 3.4C101.9 89.3 88 70.3 88 47s14-42.3 31.2-42.3" class="i"/><path d="M304.6 58v31.3h-29.2v-7.6l7-23.7zm-7.7 31.4v3.5h3.7v4.3l-1.3 1.3v4h-3.6v3.9h1.9v4h-3.5v-7.9h-17.7"/><path d="M276.1 89.3h-8.6m-84.9 18.1c-7-3.4-11.5-7.4-13.4-12.1-2.3 2.3-4.6 4.3-6.7 6l20.1 6.1zm64.5-20.6v-10c0-1.5-1.1-2.7-2.5-2.7h-4.1c-1.4 0-2.5 1.2-2.5 2.7v12.4"/><use xlink:href="#B"/><use xlink:href="#B" x="-54.4"/><path d="M196.8.6h7.1v4h-7.1zm19.1 2h7.1v2h-7.1zm-30.2 0h7.1v2h-7.1z"/><path d="M244.3 77.3v10.6m-3.2-10.6v12m-53.4-12v12m-54.4-12v12m51.1-12v12m-54.3-12v12" class="m"/></g><defs><path id="J" d="M162 85.2h-19.1a4.48 4.48 0 1 0 0 9H162a4.48 4.48 0 1 0 0-9z"/></defs><clipPath id="K"><use xlink:href="#J"/></clipPath><g clip-path="url(#K)"><defs><path id="L" d="M7.3-.4h298.3v132H7.3z"/></defs><clipPath id="M"><use xlink:href="#L"/></clipPath><g clip-path="url(#M)" class="l"><defs><path id="N" d="M128.2 75.2h48.4v29.2h-48.4z"/></defs><clipPath id="O"><use xlink:href="#N"/></clipPath><g clip-path="url(#O)"><defs><path id="P" d="M138.3 85.2h28.2v9.1h-28.2z"/></defs><clipPath id="Q"><use xlink:href="#P"/></clipPath><path d="M162 85.2h-19.1a4.48 4.48 0 1 0 0 9H162a4.48 4.48 0 1 0 0-9z" clip-path="url(#Q)" class="h i j k"/></g></g></g><g class="j k"><g class="h"><path d="M164.1 93.4l-6 9h-11.3l-6.6-9m17.8 9v6m-11.1-6v6"/><g class="m"><path d="M158.1 103.9h12.3m-61.3 0h37.8m-45-17l4.2 2.4h14.4"/><path d="M109.3 116H133" class="i"/><path d="M176.6 103.9h10.2"/></g><path d="M144.4 99.4h-12.1v-6.1h8.3m50.8 1.5h-28.1m-31 .5H97.5l-13 3.2"/><path d="M119.7 116v-11.6m-5.1 11.6v-11.6" class="m"/><path d="M107.6 97.3h-9.1a1.54 1.54 0 0 0-1.5 1.5 1.54 1.54 0 0 0 1.5 1.5h9.1a1.54 1.54 0 0 0 1.5-1.5 1.54 1.54 0 0 0-1.5-1.5zm0 8.1h-9.1a1.54 1.54 0 0 0-1.5 1.5 1.54 1.54 0 0 0 1.5 1.5h9.1a1.54 1.54 0 0 0 1.5-1.5 1.54 1.54 0 0 0-1.5-1.5zm0 7.1h-9.1A1.54 1.54 0 0 0 97 114a1.54 1.54 0 0 0 1.5 1.5h9.1a1.54 1.54 0 0 0 1.5-1.5 1.54 1.54 0 0 0-1.5-1.5zm0-11.1h-9.1a1.54 1.54 0 0 0-1.5 1.5 1.54 1.54 0 0 0 1.5 1.5h9.1a1.54 1.54 0 0 0 1.5-1.5 1.47 1.47 0 0 0-1.5-1.5z"/><path d="M107.6 108.4h-9.1a1.54 1.54 0 0 0-1.5 1.5 1.54 1.54 0 0 0 1.5 1.5h9.1a1.54 1.54 0 0 0 1.5-1.5 1.54 1.54 0 0 0-1.5-1.5zm0 7.1h-9.1A1.54 1.54 0 0 0 97 117a1.54 1.54 0 0 0 1.5 1.5h9.1a1.54 1.54 0 0 0 1.5-1.5 1.54 1.54 0 0 0-1.5-1.5z"/></g><circle cx="95.9" cy="86.1" r="6.2"/><circle cx="95.9" cy="86.1" r="2.6"/><g class="h"><path d="M97 94.3l-1-2"/><path d="M93 80l-11.2-6.5-1.3-49.1h-5.7l.6 52.6c4.3 1.6 6.4 3.1 6.4 4.6v3.8H62.5c-7.9 0-20.2 7-21.2 21.2-.5 7.3-.3 11.4-.4 11.4l-27.7-1.7v-6.6h-.5v-3.3h4v-7.6h-4.4l.4-2.8.6-1.4h1.1v-1.3h-1.1l-.9-2.9V77l.9-1.4 1.1-18.2 13.1-31.1 7.7-3.2 32.1-.3c3.3 0 4.3 1 5.2 7.4.6 4.2 1.5 14.1 2.7 29.5" class="i"/><path d="M75.8 77.2c-10.8 0-31.5-.7-36.3 22.2"/><path d="M41.5 93.1H14.2m26.5 1.8h-26"/><path d="M22.5 117.5l-.4-20.7-.7-1.2v-3.1l-1-16.3V56.8l9.1-23.9h31.2c2.4 0 3.9 1.3 4.6 6.4.4 3.4.7 16 1.2 38.2"/></g><ellipse cx="62.2" cy="68.1" rx="1.5" ry="1"/><g class="h"><path d="M61.7 68h-4.9" class="m"/><path d="M72.8 30.3H25.4m2.5.1c-5.1 14.6-8.4 22.9-8.9 24-.4 1-2 1.6-4.6 1.6"/><path d="M25.4 30.3H7.3m7.7.5h-1.3c-1.2 0-2.1.9-2.1 2.1 0 .3.1.6.2.9l.4.7c.7 1.4 2.1 2.3 3.6 2.3H17c1.2 0 2.1-.9 2.1-2.1 0-.3-.1-.6-.2-.9l-.4-.7c-.6-1.4-2-2.3-3.5-2.3z"/></g></g><defs><path id="R" d="M32.5 35.9a3.01 3.01 0 0 0-3 3v6a3.01 3.01 0 0 0 3 3 3.08 3.08 0 0 0 3-3v-6c0-1.7-1.3-3-3-3z"/></defs><clipPath id="S"><use xlink:href="#R"/></clipPath><g clip-path="url(#S)"><defs><path id="T" d="M7.3-.4h298.3v132H7.3z"/></defs><clipPath id="U"><use xlink:href="#T"/></clipPath><g clip-path="url(#U)" class="l"><defs><path id="V" d="M19.4 25.8h26.2V58H19.4z"/></defs><clipPath id="W"><use xlink:href="#V"/></clipPath><g clip-path="url(#W)"><defs><path id="X" d="M29.5 35.9h6V48h-6z"/></defs><clipPath id="Y"><use xlink:href="#X"/></clipPath><path d="M32.5 35.9a3.01 3.01 0 0 0-3 3v6a3.01 3.01 0 0 0 3 3 3.01 3.01 0 0 0 3-3v-6c0-1.7-1.3-3-3-3z" clip-path="url(#Y)" class="h i j k"/></g></g></g><defs><path id="Z" d="M32.5,49c-1.7,0-3,1.4-3,3v2c0,1.7,1.4,3,3,3c1.6,0,3-1.4,3-3v-2C35.5,50.3,34.2,49,32.5,49z"/></defs><clipPath id="a"><use xlink:href="#Z"/></clipPath><g clip-path="url(#a)"><defs><path id="b" d="M7.3-.4h298.3v132H7.3z"/></defs><clipPath id="c"><use xlink:href="#b"/></clipPath><g clip-path="url(#c)" class="l"><defs><path id="d" d="M19.4 38.9h26.2v28.2H19.4z"/></defs><clipPath id="e"><use xlink:href="#d"/></clipPath><g clip-path="url(#e)"><defs><path id="f" d="M29.5 49h6v8.1h-6z"/></defs><clipPath id="g"><use xlink:href="#f"/></clipPath><path d="M32.5,49c-1.7,0-3,1.4-3,3v2c0,1.7,1.4,3,3,3c1.7,0,3-1.4,3-3v-2C35.5,50.3,34.2,49,32.5,49z" clip-path="url(#g)" class="h i j k"/></g></g></g><g class="h j k"><path d="M32.5,36.9v15.3c0,5.9-1.7,9.2-5,9.9" class="m"/><path d="M37.5 62.1h-10c-.6 0-1 .5-1 1 0 .6.5 1 1 1h10.1c.6 0 1-.5 1-1-.1-.6-.5-1-1.1-1z"/><path d="M89.9 84.7l-9.3-5.5c-1.7-1-5.4-4.7-5.4-12.1" class="i"/><path d="M59.7 34.9H43.6c-1.1 0-2 .9-2 2V52c0 1.1.9 2 2 2h16.1c1.1 0 2-.9 2-2V36.9c0-1.1-.9-2-2-2zM35.5 54h2.4c.4 0 .6-.3.6-.6V35.5c0-.4-.3-.6-.6-.6h-6.4c-.3 0-.6.2-.6.5l-.6 2m-.6 2.8l-3.2 13c-.1.3.1.7.5.8h3.1M12.6 99.4c-1.9 2.6-1.6 5.3.8 8.1"/></g><defs><path id="h" d="M73.8 82.2h-3c-.6 0-1 .5-1 1a1.08 1.08 0 0 0 1 1h3c.6 0 1-.5 1-1s-.4-1-1-1z"/></defs><clipPath id="i"><use xlink:href="#h"/></clipPath><g clip-path="url(#i)"><defs><path id="j" d="M7.3-.4h298.3v132H7.3z"/></defs><clipPath id="k"><use xlink:href="#j"/></clipPath><g clip-path="url(#k)" class="l"><defs><path id="l" d="M59.7 72.1h25.2v22.2H59.7z"/></defs><clipPath id="m"><use xlink:href="#l"/></clipPath><g clip-path="url(#m)"><defs><path id="n" d="M69.8 82.2h5v2h-5z"/></defs><clipPath id="o"><use xlink:href="#n"/></clipPath><path d="M73.8 82.2h-3c-.6 0-1 .5-1 1 0 .6.5 1 1 1h3c.6 0 1-.5 1-1s-.4-1-1-1z" clip-path="url(#o)" class="h i j k"/></g></g></g><defs><path id="p" d="M87.9 94.3h-3c-.6 0-1 .5-1 1a1.08 1.08 0 0 0 1 1h3c.6 0 1-.5 1-1s-.4-1-1-1z"/></defs><clipPath id="q"><use xlink:href="#p"/></clipPath><g clip-path="url(#q)"><defs><path id="r" d="M7.3-.4h298.3v132H7.3z"/></defs><clipPath id="s"><use xlink:href="#r"/></clipPath><g clip-path="url(#s)" class="l"><defs><path id="t" d="M73.8 84.2H99v22.2H73.8z"/></defs><clipPath id="u"><use xlink:href="#t"/></clipPath><g clip-path="url(#u)"><defs><path id="v" d="M83.9 94.3h5v2h-5z"/></defs><clipPath id="w"><use xlink:href="#v"/></clipPath><path d="M87.9 94.3h-3c-.6 0-1 .5-1 1a1.08 1.08 0 0 0 1 1h3c.6 0 1-.5 1-1s-.4-1-1-1z" clip-path="url(#w)" class="h i j k"/></g></g></g><defs><path id="x" d="M93.5 105.9v-3c0-.6-.5-1-1-1-.6 0-1 .5-1 1v3c0 .6.5 1 1 1s1-.4 1-1z"/></defs><clipPath id="y"><use xlink:href="#x"/></clipPath><g clip-path="url(#y)"><defs><path id="z" d="M7.3-.4h298.3v132H7.3z"/></defs><clipPath id="AA"><use xlink:href="#z"/></clipPath><g clip-path="url(#AA)" class="l"><defs><path id="AB" d="M80.9 91.3h23.2v26.2H80.9z"/></defs><clipPath id="AC"><use xlink:href="#AB"/></clipPath><g clip-path="url(#AC)"><defs><path id="AD" d="M90.9 101.4h3v6h-3z"/></defs><clipPath id="AE"><use xlink:href="#AD"/></clipPath><path d="M93.5 105.9v-3c0-.6-.5-1-1-1-.6 0-1 .5-1 1v3c0 .6.5 1 1 1s1-.4 1-1z" clip-path="url(#AE)" class="h i j k"/></g></g></g><g class="h j k"><g class="i"><path d="M96.3 116H81.9m107.6 0h-15.8" class="m"/><path d="M235.1 116h-8.6"/></g><path d="M272 93h26.1" class="m"/><path d="M280.4 89.3v-6.6c0-1.2.3-2.9 1.1-5.2.5-1.5 2.5-8 5.9-19.4"/><path d="M172.1 111.9h-38.3M173 116h-40.5" stroke-dasharray="4,4"/></g></svg>