<svg xmlns="http://www.w3.org/2000/svg" width="88" height="14" viewBox="0 0 88 14"><g><g><g><path d="M84.42 12.56c.608 0 1.416-.236 1.416-.971 0-.633-.915-.868-2.453-1.177-1.263-.28-2.498-.676-2.498-2.03 0-1.94 1.738-2.44 3.428-2.44 1.706 0 3.305.557 3.472 2.425H85.73c-.06-.81-.701-1.029-1.477-1.029-.488 0-1.203.073-1.203.706 0 .75 1.235.852 2.452 1.13 1.263.28 2.499.722 2.499 2.134 0 2-1.812 2.646-3.594 2.646-1.827 0-3.627-.662-3.701-2.676h2.053v.002c0 .896.823 1.28 1.662 1.28zM74.043 9.951c0 1.262.565 2.42 1.843 2.42 1.281 0 1.843-1.158 1.843-2.42 0-1.292-.562-2.437-1.843-2.437-1.278 0-1.843 1.145-1.843 2.437zM71.956 3.25h2.16v3.827h.031c.533-.78 1.506-1.134 2.48-1.134 1.567 0 3.255 1.223 3.255 4.004 0 2.782-1.688 4.018-3.255 4.018-1.155 0-2.114-.339-2.586-1.177h-.031v.97h-2.054zm-4.968 7.146c-.9.118-1.767.265-1.767 1.192 0 .764.625.97 1.324.97 1.69 0 1.75-1.28 1.75-1.75v-.778c-.228.204-.713.292-1.307.366zm1.308-.366v-.001zm-1.297-4.09c1.565 0 3.452.34 3.452 2.165v3.96c0 .694.076 1.385.274 1.693h-2.19a2.997 2.997 0 0 1-.154-.735c-.682.691-1.672.942-2.644.942-1.508 0-2.679-.722-2.679-2.283 0-1.958 1.749-2.223 3.224-2.385 1.355-.147 2.008-.25 2.008-.927 0-.885-.637-1.03-1.398-1.03-.838 0-1.354.323-1.43 1.147h-2.16c.122-1.943 1.932-2.546 3.697-2.546zm-3.697 2.547zM59.706 3.25h2.162v10.498h-2.162zm-3.325 5.87c-.198-1.05-.667-1.606-1.72-1.606-1.4 0-1.751 1.024-1.797 1.607zm-1.583 3.27c.87 0 1.569-.516 1.706-.986h1.904c-.608 1.811-1.904 2.561-3.686 2.561-2.482 0-4.022-1.648-4.022-4.004 0-2.282 1.63-4.02 4.022-4.02 2.681 0 3.99 2.18 3.822 4.52h-5.68c.061 1.34.717 1.929 1.934 1.929zM42.93 3.25h2.163v5.63l2.727-2.733h2.56L47.407 8.94l3.306 4.808h-2.62l-2.163-3.396-.838.78v2.616H42.93zm-5.172 7.146c-.896.118-1.76.265-1.76 1.192 0 .764.621.97 1.32.97 1.685 0 1.745-1.28 1.745-1.75v-.78c-.227.206-.713.294-1.305.368zm.02-4.455c1.57 0 3.459.339 3.459 2.164v3.96c0 .694.075 1.385.273 1.693h-2.193a3.022 3.022 0 0 1-.152-.735c-.685.691-1.675.942-2.65.942-1.508 0-2.68-.722-2.68-2.283 0-1.958 1.75-2.223 3.227-2.385 1.356-.147 2.011-.25 2.011-.927 0-.885-.64-1.03-1.401-1.03-.837 0-1.356.323-1.432 1.147h-2.162c.122-1.943 1.935-2.546 3.7-2.546zm-3.7 2.546zM28.346 3c2.376 0 4.401 1.354 4.691 3.78h-2.315c-.168-1.045-1.204-1.838-2.376-1.838-2.148 0-2.955 1.764-2.955 3.602 0 1.75.807 3.515 2.955 3.515 1.462 0 2.284-.955 2.468-2.353h2.314C32.885 12.338 31.026 14 28.346 14 24.996 14 23 11.574 23 8.544 23 5.427 24.995 3 28.346 3z"/></g><g><path fill="#dc0814" d="M9.607 0H8.4v1h1.208zm-2.4 0H6v1h1.207zM12 0h-1.21v1H12z"/></g><g><path fill="#ffe919" d="M10.79 1H12v2h-1.21zM8.4 1h1.207v2H8.4zM6 1h1.207v2H6z"/></g><g><path fill="#f49600" d="M14 3H4v3h10z"/></g><g><path fill="#b32b2e" d="M16 6H2v4h14z"/></g><g><path fill="#e9500e" d="M18 10H0v4h18v-4z"/></g></g></g></svg>