<svg xmlns="http://www.w3.org/2000/svg" width="14" height="20" viewBox="0 0 14 20"><g><g><path fill="#a4a4a4" d="M3.596 10.285C2.011 7.04 5.099 2.765 7.78 0c-1.148 5.242 5.617 8.36 5.617 13.916 0 2.647-2.042 5.704-5.693 6.171 2.316-1.912 2.527-3.828 2.415-5.242-.198-2.494-1.53-2.875-2.415-4.206 1.113.509 4.017 1.33 3.552 5.892.455-.764.706-1.66.706-2.615 0-4.275-4.266-6.493-5.23-10.56-1.32 1.28-2.77 4.599-1.971 6.27.798 1.67 1.542 2.997 2.222 4.564.491 1.13-.021 2.5-.391 2.997v-.011a8.38 8.38 0 0 1-.003.019c-.403-4.337-3.425-2.57-5.534-6.157-.736 5.882 4.206 5.882 3.237 8.96-.744-2.092-2.358-2.302-3.237-3.694-1.61-2.547-1.188-6.578 0-7.85.469 2.998 2.662 3.61 4.188 4.657-.495-.772-1.074-1.652-1.647-2.826z"/></g></g></svg>