<svg xmlns="http://www.w3.org/2000/svg" viewBox="0 0 74 25">
  <defs>
    <linearGradient id="xui4a" x1="60.58" x2="60.58" y1="7.54" y2="24.59" gradientUnits="userSpaceOnUse">
      <stop offset="0" stop-color="#18c3f4"/>
      <stop offset="1" stop-color="#3c7cbf"/>
    </linearGradient>
    <linearGradient id="xui4b" x1="28.08" x2="39.9" y1=".78" y2="22.46" gradientUnits="userSpaceOnUse">
      <stop offset="0" stop-color="#18c3f4"/>
      <stop offset="1" stop-color="#3c7cbf"/>
    </linearGradient>
  </defs>
  <g>
    <g>
      <g>
        <path fill="#231f20"
              d="M31.5 11c1.291 2.958 4.5 5.578 4.5 7.863S33.985 23 31.5 23 27 21.148 27 18.863c0-2.285 3.542-5.046 4.5-7.863"/>
      </g>
      <g>
        <path fill="#fff"
              d="M34.385 18.02c-.021-.038-.076-.017-.068.026.119.695-.05 1.934-.287 2.526-.733 1.84-2.084 2.428-2.028 2.428C33.658 23 35 21.602 35 19.879c0-.59-.251-1.21-.615-1.86"/>
      </g>
      <g>
        <path fill="#231f20"
              d="M0 8h3.663c.53 0 .989.012 1.376.036.387.024.766.069 1.136.134.37.065.68.152.93.262.252.11.491.257.718.442.226.186.408.402.544.649.136.246.255.545.356.895.1.35.172.744.214 1.183.042.439.063.943.063 1.512v5.36c0 .501-.028.942-.084 1.322-.055.38-.156.75-.303 1.106a2.606 2.606 0 0 1-.607.906 3.69 3.69 0 0 1-.968.648c-.387.185-.862.322-1.423.411-.562.09-1.213.134-1.952.134H0zm4.584 12.737c.258-.076.448-.211.57-.407.122-.195.2-.404.236-.627a6.47 6.47 0 0 0 .052-.942v-6.173c0-.384-.004-.679-.01-.884a3.691 3.691 0 0 0-.079-.633c-.046-.216-.105-.37-.178-.463a1.101 1.101 0 0 0-.33-.262 1.393 1.393 0 0 0-.523-.16 6.713 6.713 0 0 0-.764-.036v10.7c.426 0 .768-.038 1.026-.113z"/>
      </g>
      <g>
        <path fill="#231f20" d="M11 8h3v15h-3z"/>
      </g>
      <g>
        <path fill="#231f20" d="M17 23v-2.572l3.614-10.154H17V8h7v2.212l-3.775 10.514H24V23h-7z"/>
      </g>
      <g>
        <path fill="url(#xui4a)"
              d="M60.18 10.723l.584 6.85h-1.219l.595-6.85zm-4.412 12.96h2.858l.56-3.775h1.838l.39 3.776h3.397l-1.9-15.378h-4.675zM66.625 8.307v2.331h3.807l-3.807 10.41v2.637H74v-2.33h-3.977L74 10.573V8.306zm-18.642-.18a4.104 4.104 0 0 0-1.17.444 3.147 3.147 0 0 0-.954.818c-.26.334-.468.765-.624 1.293-.157.528-.235 1.133-.235 1.815v7.008c0 .865.075 1.594.225 2.185.15.59.378 1.054.684 1.388.307.334.667.571 1.08.712.412.14.909.211 1.488.211 1.36 0 2.342-.362 2.948-1.087l.19.78h1.98v-7.756h-4.688v2.332h1.29v2.058c0 .803-.3 1.203-.9 1.203-.6 0-.9-.4-.9-1.203v-8.654c0-.802.3-1.203.9-1.203.6 0 .9.4.9 1.203v2.143h3.397V12.19c0-1.477-.361-2.545-1.084-3.203C51.787 8.329 50.716 8 49.297 8c-.473 0-.911.042-1.314.127z"/>
      </g>
      <g>
        <path fill="url(#xui4b)"
              d="M29.649 11.408l.63.979c.362-.564.92-1.8.92-1.8-.768-2.047.17-4.817 1.927-6.41C34.409 9.239 40.09 12 40.09 17.32a6.02 6.02 0 0 1-.94 3.255c1.153-6.476-5.234-9.694-6.209-13.502-1.264 1.346-.364 2.768-.106 3.305 1.202 2.504 4.538 4.995 4.801 8.1.15 1.758-.132 4.144-3.215 6.523C39.282 24.42 42 20.614 42 17.32 42 10.404 32.994 6.523 34.521 0c-3.568 3.44-6.983 7.37-4.872 11.408z"/>
      </g>
    </g>
  </g>
</svg>
